<?xml version="1.0" encoding="UTF-8" standalone="no"?>
<!-- Created with Inkscape (http://www.inkscape.org/) -->

<svg
   xmlns:dc="http://purl.org/dc/elements/1.1/"
   xmlns:cc="http://creativecommons.org/ns#"
   xmlns:rdf="http://www.w3.org/1999/02/22-rdf-syntax-ns#"
   xmlns:svg="http://www.w3.org/2000/svg"
   xmlns="http://www.w3.org/2000/svg"
   xmlns:sodipodi="http://sodipodi.sourceforge.net/DTD/sodipodi-0.dtd"
   xmlns:inkscape="http://www.inkscape.org/namespaces/inkscape"
   id="svg2"
   version="1.1"
   inkscape:version="0.48.3.1 r9886"
   width="105.34419"
   height="106.08151"
   xml:space="preserve"
   sodipodi:docname="eu-logo.eps"><metadata
     id="metadata8"><rdf:RDF><cc:Work
         rdf:about=""><dc:format>image/svg+xml</dc:format><dc:type
           rdf:resource="http://purl.org/dc/dcmitype/StillImage" /><dc:title></dc:title></cc:Work></rdf:RDF></metadata><defs
     id="defs6"><clipPath
       clipPathUnits="userSpaceOnUse"
       id="clipPath18"><path
         d="M 0,851.973 0,0 l 5312.91,0 0,851.973 -5312.91,0 z"
         id="path20"
         inkscape:connector-curvature="0" /></clipPath></defs><sodipodi:namedview
     pagecolor="#ffffff"
     bordercolor="#666666"
     borderopacity="1"
     objecttolerance="10"
     gridtolerance="10"
     guidetolerance="10"
     inkscape:pageopacity="0"
     inkscape:pageshadow="2"
     inkscape:window-width="1920"
     inkscape:window-height="1148"
     id="namedview4"
     showgrid="false"
     fit-margin-top="0"
     fit-margin-left="0"
     fit-margin-right="0"
     fit-margin-bottom="0"
     inkscape:zoom="0.54358261"
     inkscape:cx="331.58456"
     inkscape:cy="53.041015"
     inkscape:window-x="0"
     inkscape:window-y="24"
     inkscape:window-maximized="1"
     inkscape:current-layer="g10" /><g
     id="g10"
     inkscape:groupmode="layer"
     inkscape:label="ink_ext_XXXXXX"
     transform="matrix(1.25,0,0,-1.25,-0.47168,106.2905)"><path
       inkscape:connector-curvature="0"
       id="path70"
       style="fill:#0e2b58;fill-opacity:1;fill-rule:nonzero;stroke:none"
       d="m 6.34141,51.1633 c 0.74179,-0.1649 0.97695,-0.0715 1.09492,0.4555 l 0.1832,-0.0407 -0.4875,-2.1836 -0.18398,0.0414 c 0.09922,0.4414 0.02812,0.7274 -0.82266,0.9172 L 1.42695,51.4055 1.22656,50.5121 c -0.18554,-0.8285 -0.03281,-1.257 0.6,-1.4555 l -0.04062,-0.1832 -1.408596,0.3161 0.040625,0.1832 c 0.094531,0.0687 0.169922,0.1531 0.246484,0.2937 0.062891,0.1336 0.128125,0.3231 0.186719,0.5797 l 0.721098,3.2266 c 0.11992,0.5382 0.11132,0.7988 -0.00665,1.0293 L 1.60859,54.6953 3.01758,54.3809 2.99102,54.2621 C 2.44883,54.259 2.03711,54.1367 1.81797,53.1566 l -0.20938,-0.9343 4.73282,-1.059" /><path
       inkscape:connector-curvature="0"
       id="path72"
       style="fill:#0e2b58;fill-opacity:1;fill-rule:nonzero;stroke:none"
       d="m 6.67344,58.1723 1.64375,-0.802 c 0.68398,-0.3332 0.98476,-0.2711 1.22148,0.2141 L 9.70664,57.5031 8.70586,55.4512 8.5375,55.5344 C 8.75117,55.9703 8.70312,56.25 7.95039,56.6176 L 4.41406,58.343 C 3.74102,58.6715 3.4457,58.6438 3.19922,58.1379 l -0.16836,0.0828 1.00039,2.0504 0.16797,-0.0832 C 3.98203,59.7434 4.0582,59.4477 4.78125,59.0953 L 6.39609,58.307 7.90312,61.398 6.28906,62.1852 C 5.59609,62.5238 5.31562,62.4766 5.07852,61.991 l -0.16836,0.0824 0.99062,2.0301 0.16875,-0.0816 C 5.83242,63.5367 5.98281,63.2672 6.65664,62.9387 L 10.193,61.2133 c 0.673,-0.3285 0.9785,-0.2813 1.2152,0.2043 l 0.1684,-0.0821 -0.9911,-2.0304 -0.1683,0.0816 c 0.2176,0.4449 0.1613,0.7067 -0.59259,1.0735 l -1.64297,0.8031 -1.5082,-3.091" /><path
       inkscape:connector-curvature="0"
       id="path74"
       style="fill:#0e2b58;fill-opacity:1;fill-rule:nonzero;stroke:none"
       d="m 14.1387,68.5543 -0.1196,-0.1441 c -0.4996,0.2441 -0.6144,0.2109 -1.0304,-0.2891 l -1.0016,-1.202 1.7356,-1.4464 c 0.2382,-0.1985 0.4011,-0.1915 0.6269,0.0804 l 0.7063,0.8461 c 0.5918,0.7121 0.7054,0.9172 0.3109,1.7348 l 0.1199,0.1437 0.7223,-0.975 -2.9125,-3.4965 -0.1442,0.12 c 0.3168,0.3804 0.3395,0.6492 -0.3043,1.1847 l -3.03081,2.525 C 9.21523,68.1371 8.93359,68.143 8.58828,67.7281 L 8.44375,67.8477 11.357,71.3453 12.1699,70.668 12.0918,70.5742 C 11.468,70.9086 11.2836,70.775 10.8395,70.241 l -1.16489,-1.3961 2.07579,-1.7289 1.1285,1.3551 c 0.2742,0.3297 0.3215,0.5059 -0.0375,0.9199 l 0.1203,0.1442 1.177,-0.9809" /><path
       inkscape:connector-curvature="0"
       id="path76"
       style="fill:#0e2b58;fill-opacity:1;fill-rule:nonzero;stroke:none"
       d="m 25.9684,75.6691 c -0.1825,-0.9113 -0.5957,-1.5246 -1.3258,-1.9355 -1.3344,-0.7516 -2.402,-0.1133 -2.9371,0.8371 l -1.5262,2.707 c -0.4105,0.7297 -0.6844,0.7668 -1.1156,0.5223 l -0.0914,0.1641 1.9867,1.1199 0.0918,-0.1641 C 20.5996,78.6656 20.509,78.4004 20.9039,77.6988 l 1.5688,-2.7843 c 0.4765,-0.8446 1.2875,-1.1848 2.2187,-0.6606 0.634,0.3574 1.0117,0.9879 1.0609,1.7988 l -1.866,3.3137 C 23.5293,80 23.2602,80.1391 22.8086,79.9102 l -0.0922,0.1625 1.9391,1.0933 0.0918,-0.1637 c -0.4614,-0.2589 -0.5047,-0.5625 -0.1317,-1.225 l 1.9309,-3.4281 c 0.4062,-0.7203 0.6933,-0.7594 1.1168,-0.5219 l 0.091,-0.1636 -1.3527,-0.7617 -0.4332,0.7671" /><path
       inkscape:connector-curvature="0"
       id="path78"
       style="fill:#0e2b58;fill-opacity:1;fill-rule:nonzero;stroke:none"
       d="m 35.9809,78.1664 -0.1821,-0.0473 -5.6742,4.2121 -0.0215,-0.0046 1.0996,-4.2914 c 0.1582,-0.62 0.461,-0.7813 1.0161,-0.6387 l 0.0464,-0.182 -1.8566,-0.4758 -0.0473,0.1824 c 0.5125,0.1312 0.7172,0.3535 0.4903,1.2394 l -0.9161,3.5774 c -0.1753,0.6832 -0.4546,1.0211 -1.1972,0.8988 l -0.0465,0.1809 1.5699,0.4023 5.041,-3.7824 0.0211,0.0059 -0.916,3.5757 c -0.2047,0.8012 -0.4707,0.9489 -1.0035,0.8125 l -0.0473,0.1813 1.8473,0.4719 0.0461,-0.1805 C 34.6523,84.1508 34.523,83.8559 34.7066,83.1418 l 1.2743,-4.9754" /><path
       inkscape:connector-curvature="0"
       id="path80"
       style="fill:#0e2b58;fill-opacity:1;fill-rule:nonzero;stroke:none"
       d="m 41.1293,79.85 c 0.0383,-0.7707 0.2367,-0.9922 0.7652,-0.9656 l 0.0086,-0.1875 -2.2668,-0.1133 -0.0097,0.1879 c 0.5175,0.0254 0.7054,0.234 0.666,1.0371 l -0.1953,3.9297 c -0.0391,0.7922 -0.2262,0.9922 -0.7653,0.966 l -0.0097,0.1863 2.2679,0.1133 0.009,-0.1871 C 41.0703,84.7906 40.8953,84.5391 40.9336,83.7797 L 41.1293,79.85" /><path
       inkscape:connector-curvature="0"
       id="path82"
       style="fill:#0e2b58;fill-opacity:1;fill-rule:nonzero;stroke:none"
       d="m 47.5082,78.2668 -0.1738,0.0227 -1.2582,5.3371 c -0.1938,0.8046 -0.3071,1.1191 -0.8946,1.2207 l 0.025,0.1851 2.2723,-0.3019 -0.0254,-0.1864 c -0.4473,0.0598 -0.6976,-0.1511 -0.5769,-0.6687 l 0.9922,-4.2442 1.971,3.7063 c 0.2672,0.5094 0.2145,0.8609 -0.3539,0.9371 l 0.0254,0.1856 1.8239,-0.2434 -0.0266,-0.1961 c -0.4695,0.0625 -0.8672,-0.2527 -1.2981,-1.0613 l -2.5023,-4.6926" /><path
       inkscape:connector-curvature="0"
       id="path84"
       style="fill:#0e2b58;fill-opacity:1;fill-rule:nonzero;stroke:none"
       d="m 57.4684,78.1445 -0.1758,0.0645 c 0.0613,0.5523 -0.0094,0.6488 -0.6196,0.8726 l -1.4695,0.5372 -0.7758,-2.1215 c -0.107,-0.2899 -0.0453,-0.4414 0.2864,-0.5625 l 1.0355,-0.3797 c 0.8688,-0.3176 1.1016,-0.3559 1.7375,0.2922 l 0.1762,-0.0649 -0.6746,-1.0086 -4.2742,1.5641 0.0644,0.1754 c 0.4656,-0.1695 0.725,-0.1008 1.0125,0.6855 l 1.3566,3.7051 c 0.2692,0.7352 0.179,1.0023 -0.3292,1.1879 l 0.0644,0.1762 4.275,-1.5637 -0.3633,-0.9934 -0.114,0.0414 c 0.1035,0.7008 -0.0848,0.8289 -0.736,1.0672 l -1.7082,0.625 -0.9277,-2.5359 1.6566,-0.6059 c 0.4032,-0.1472 0.5848,-0.1312 0.8528,0.345 l 0.1761,-0.0645 -0.5261,-1.4387" /><path
       inkscape:connector-curvature="0"
       id="path86"
       style="fill:#0e2b58;fill-opacity:1;fill-rule:nonzero;stroke:none"
       d="m 62.9082,75.9375 0.423,-0.2789 c 0.9661,-0.6359 0.4247,-2.0606 0.62,-3.9051 l 1.0777,-0.7101 0.102,0.157 c -0.8313,0.6406 -0.0176,2.5976 -0.5829,3.8812 0.925,-0.2789 1.5575,0.0024 1.9387,0.5821 0.461,0.6992 0.3399,1.7574 -0.8472,2.5386 l -2.1622,1.4258 -0.1011,-0.157 c 0.4222,-0.2793 0.5125,-0.5234 0.0562,-1.2137 l -2.1746,-3.3027 c -0.468,-0.7102 -0.7457,-0.7109 -1.1508,-0.4434 l -0.1027,-0.1566 1.8961,-1.2496 0.1031,0.1566 c -0.4328,0.2848 -0.4707,0.5879 -0.0461,1.2321 l 0.9508,1.4437 z m 1.7336,2.6324 0.552,-0.3629 c 0.8089,-0.5351 1.0054,-1.3773 0.5457,-2.0765 -0.3993,-0.6067 -1.1481,-0.9844 -2.0407,-0.3957 l -0.6457,0.4246 1.5887,2.4105" /><path
       inkscape:connector-curvature="0"
       id="path88"
       style="fill:#0e2b58;fill-opacity:1;fill-rule:nonzero;stroke:none"
       d="m 72.9664,70.2148 -0.1328,0.134 c 0.598,0.727 0.3934,1.4539 -0.0547,1.9094 -0.4641,0.4715 -1.0559,0.5527 -1.4723,0.1441 -0.832,-0.8195 0.0774,-2.1839 0.0672,-3.4609 -0.0047,-0.6234 -0.2097,-0.9805 -0.5086,-1.2742 -0.7074,-0.6965 -1.8449,-0.6871 -2.541,0.0195 -0.4711,0.4793 -0.6301,1.1117 -0.7762,1.2606 -0.0777,0.0781 -0.1871,0.0797 -0.3437,0.0023 l -0.1316,0.1348 1.2179,1.1972 0.1305,-0.1336 c -0.8234,-0.8273 -0.4266,-1.7804 -0.0399,-2.1734 0.5344,-0.5414 1.2032,-0.5937 1.6907,-0.1152 0.7765,0.766 -0.052,2.3312 -0.0446,3.3293 0.0043,0.5453 0.2098,0.9648 0.5629,1.3129 0.6918,0.6796 1.65,0.6484 2.3684,-0.0813 0.4723,-0.4789 0.5238,-0.8769 0.6941,-1.0496 0.0696,-0.0703 0.1008,-0.0715 0.2418,0.0059 l 0.1231,-0.1254 -1.0512,-1.0364" /><path
       inkscape:connector-curvature="0"
       id="path90"
       style="fill:#0e2b58;fill-opacity:1;fill-rule:nonzero;stroke:none"
       d="m 73.5012,63.4594 c -0.634,-0.4391 -0.7168,-0.725 -0.4168,-1.1606 l -0.1532,-0.1058 -1.2933,1.8656 0.1543,0.1059 c 0.2941,-0.425 0.5699,-0.4747 1.2312,-0.0168 l 3.2344,2.241 c 0.652,0.4523 0.7234,0.716 0.416,1.1605 l 0.1532,0.1063 1.2941,-1.866 -0.1531,-0.1067 c -0.3016,0.434 -0.6082,0.45 -1.2336,0.0168 l -3.2332,-2.2402" /><path
       inkscape:connector-curvature="0"
       id="path92"
       style="fill:#0e2b58;fill-opacity:1;fill-rule:nonzero;stroke:none"
       d="M 76.6445,57.7297 C 75.9535,57.4125 75.823,57.1965 76.048,56.7051 l -0.1703,-0.0781 -0.9312,2.0328 0.1703,0.0785 c 0.1879,-0.4117 0.4184,-0.5961 1.2098,-0.2328 l 4.3777,2.0047 -0.3813,0.832 c -0.3535,0.7726 -0.7347,1.0215 -1.3585,0.7965 l -0.0782,0.1695 1.3129,0.6016 0.0778,-0.1696 c -0.0336,-0.1129 -0.0426,-0.2254 -0.018,-0.3836 0.0301,-0.1453 0.093,-0.3339 0.2023,-0.575 l 1.3782,-3.0058 c 0.2289,-0.5008 0.3949,-0.7024 0.6277,-0.8145 l 0.0832,-0.1797 -1.3137,-0.6031 -0.0504,0.111 c 0.4305,0.3308 0.6836,0.6777 0.2664,1.589 L 81.0531,59.75 76.6445,57.7297" /><path
       inkscape:connector-curvature="0"
       id="path94"
       style="fill:#0e2b58;fill-opacity:1;fill-rule:nonzero;stroke:none"
       d="M 79.1344,50.0535 C 78.391,49.8938 78.1855,49.6918 78.2988,49.1652 l -0.1828,-0.0406 -0.482,2.252 0.1828,0.0406 c 0.1016,-0.4754 0.2578,-0.7344 1.1418,-0.5457 l 1.9402,0.416 1.766,1.7531 c 0.5872,0.5762 0.6872,0.7895 0.6055,1.2793 l 0.1828,0.0391 0.5164,-2.4141 -0.1828,-0.0394 c -0.1457,0.68 -0.3996,0.7039 -0.7226,0.3757 l -1.6145,-1.6191 1.7621,-0.6488 c 0.5488,-0.1985 1.0067,-0.1223 0.8957,0.3953 l 0.1836,0.0391 0.3617,-1.6918 -0.1832,-0.0399 c -0.1336,0.4676 -0.2972,0.6016 -0.9105,0.832 l -2.4852,0.9204 -1.9394,-0.4149" /><path
       inkscape:connector-curvature="0"
       id="path96"
       style="fill:#0e2b58;fill-opacity:1;fill-rule:nonzero;stroke:none"
       d="M 3.97812,34.9719 C 2.17695,34.4531 1.17734,32.6289 1.69883,30.8176 2.21875,29.007 4.03867,27.9824 5.83984,28.5012 c 1.76875,0.5086 2.74688,2.3261 2.23008,4.1269 -0.53437,1.8535 -2.2918,2.8621 -4.0918,2.3438 z M 4.23594,34.0363 C 5.99375,34.541 7.43047,33.9699 7.84258,32.5391 8.20156,31.291 7.42461,29.966 5.51797,29.416 4.04688,28.9934 2.36602,29.3691 1.92852,30.8953 c -0.39336,1.3664 0.53828,2.6332 2.30742,3.141" /><path
       inkscape:connector-curvature="0"
       id="path98"
       style="fill:#0e2b58;fill-opacity:1;fill-rule:nonzero;stroke:none"
       d="M 6.49375,22.7129 C 5.82305,22.3312 5.71562,22.0535 5.97812,21.5938 l -0.1625,-0.0946 -1.12656,1.9735 0.16367,0.0929 c 0.26211,-0.4601 0.5461,-0.5136 1.22618,-0.1242 l 3.4164,1.9484 c 0.68989,0.3934 0.77889,0.659 0.51679,1.1192 l 0.1617,0.0945 2.1469,-3.7637 -0.9766,-0.5554 -0.0703,0.123 c 0.593,0.5164 0.5399,0.7012 0.1992,1.2957 l -0.7972,1.3977 -2.29689,-1.3117 0.81406,-1.4266 c 0.23476,-0.4113 0.5332,-0.4434 1.00043,-0.2414 L 10.2812,21.9699 8.73984,21.0891 8.65273,21.241 c 0.38165,0.2445 0.50196,0.5656 0.28282,0.9496 l -0.82461,1.4453 -1.61719,-0.923" /><path
       inkscape:connector-curvature="0"
       id="path100"
       style="fill:#0e2b58;fill-opacity:1;fill-rule:nonzero;stroke:none"
       d="m 18.6035,10.5371 -0.1457,0.1184 c 0.241,0.5019 0.2059,0.616 -0.2973,1.0261 L 16.9512,12.677 15.518,10.9297 c -0.1957,-0.2391 -0.1868,-0.4031 0.0859,-0.627 l 0.8516,-0.69801 c 0.716,-0.58711 0.9234,-0.70117 1.7363,-0.29805 l 0.1457,-0.11797 -0.9687,-0.73164 -3.5196,2.88787 0.118,0.1434 c 0.384,-0.3145 0.6516,-0.334 1.1828,0.3137 l 2.502,3.0507 c 0.496,0.6043 0.5003,0.8856 0.0824,1.2285 l 0.1179,0.1446 3.5204,-2.886 -0.6711,-0.8171 -0.0938,0.075 c 0.3297,0.6289 0.1934,0.8105 -0.3426,1.2511 l -1.4062,1.1543 -1.7121,-2.0879 1.3629,-1.1191 c 0.3332,-0.2719 0.509,-0.3164 0.9199,0.0449 l 0.1449,-0.1203 -0.9711,-1.1836" /><path
       inkscape:connector-curvature="0"
       id="path102"
       style="fill:#0e2b58;fill-opacity:1;fill-rule:nonzero;stroke:none"
       d="M 22.9941,6.25117 C 22.6672,5.53828 22.3844,5.42695 21.9234,5.63789 L 21.8457,5.46797 24.5684,4.21289 c 2.2519,-1.03711 3.7761,-0.125 4.4398,1.31563 0.6875,1.49101 0.3242,3.44218 -1.8668,4.4539 l -2.6519,1.21988 -0.0797,-0.1691 c 0.4816,-0.2215 0.5496,-0.5203 0.2308,-1.20976 L 22.9941,6.25117 z M 25.7984,10.332 26.8891,9.8293 C 28.7008,8.99609 28.7551,7.29609 28.1227,5.92383 27.4039,4.3625 26.1,3.77539 24.6797,4.42852 l -0.5906,0.27187 c -0.5305,0.24492 -0.652,0.50742 -0.2418,1.39922 l 1.9511,4.23239" /><path
       inkscape:connector-curvature="0"
       id="path104"
       style="fill:#0e2b58;fill-opacity:1;fill-rule:nonzero;stroke:none"
       d="M 34.1047,2.2668 C 33.9387,1.51289 34.0715,1.24414 34.5879,1.13203 L 34.548,0.949219 32.3305,1.4375 32.3711,1.62031 c 0.5055,-0.11054 0.7422,0.03907 0.9156,0.82617 l 0.8465,3.84063 c 0.1699,0.77461 0.0426,1.01758 -0.4848,1.13281 L 33.6891,7.60469 35.9055,7.11523 35.8656,6.93281 C 35.3484,7.04688 35.1145,6.85078 34.9508,6.10742 L 34.1047,2.2668" /><path
       inkscape:connector-curvature="0"
       id="path106"
       style="fill:#0e2b58;fill-opacity:1;fill-rule:nonzero;stroke:none"
       d="M 45.5238,0.229688 45.3375,0.226562 40.8254,5.66797 40.8027,5.66523 40.8516,1.23555 C 40.8586,0.596875 41.1145,0.369141 41.6875,0.375 L 41.6898,0.186719 39.7727,0.167188 39.7699,0.352734 c 0.5285,0.00586 0.7809,0.173828 0.7707,1.089846 L 40.5,5.13281 c -0.0074,0.70625 -0.1992,1.09961 -0.9504,1.15821 l -0.0012,0.1875 1.62,0.01875 3.9992,-4.87227 0.0222,0.00117 -0.0414,3.69141 c -0.0089,0.82695 -0.232,1.03203 -0.7828,1.02617 l -0.0011,0.18867 1.9066,0.0211 0.0016,-0.1875 C 45.6555,6.35742 45.4594,6.10352 45.468,5.36523 l 0.0558,-5.135542" /><path
       inkscape:connector-curvature="0"
       id="path108"
       style="fill:#0e2b58;fill-opacity:1;fill-rule:nonzero;stroke:none"
       d="m 52.1957,4.52266 0.5746,0.1582 c 1.0727,0.29375 1.9192,-0.12305 2.1649,-1.01758 0.246,-0.8918 -0.2247,-1.4668 -0.8414,-1.63476 L 53.5945,1.88867 C 53.1168,1.75781 52.9121,1.91992 52.6871,2.73828 L 52.1957,4.52266 z M 51.9082,2.41016 C 52.1133,1.66523 51.9941,1.39258 51.484,1.25312 l 0.0492,-0.18281 2.8051,0.77344 c 1.1476,0.31445 1.7972,1.11133 1.5461,2.02461 -0.225,0.81836 -1.0547,1.3457 -2.043,1.27812 l -0.0055,0.02266 c 0.7625,0.50664 1.0258,1.0457 0.8422,1.71758 -0.2136,0.77461 -1.0582,1.30976 -2.5242,0.90351 L 49.8586,7.16016 49.9082,6.98047 c 0.5102,0.13867 0.7441,-0.00274 0.957,-0.7793 l 1.043,-3.79101 z m 0.223,2.34492 -0.7101,2.58398 0.6055,0.16602 c 0.9879,0.27148 1.6058,-0.14063 1.8164,-0.90625 0.2097,-0.76602 -0.1922,-1.425 -1.0848,-1.66914 l -0.627,-0.17461" /><path
       inkscape:connector-curvature="0"
       id="path110"
       style="fill:#0e2b58;fill-opacity:1;fill-rule:nonzero;stroke:none"
       d="M 64.9727,7.57734 C 64.8043,6.66328 64.3992,6.04297 63.6773,5.62305 62.3547,4.84961 61.2766,5.47188 60.7266,6.41328 l -1.568,2.6836 c -0.4215,0.72265 -0.6953,0.7539 -1.1234,0.50468 l -0.095,0.16133 1.97,1.15041 0.0949,-0.1621 c -0.4469,-0.261 -0.534,-0.5285 -0.1278,-1.22268 l 1.611,-2.75899 c 0.489,-0.83789 1.3047,-1.16484 2.2281,-0.62695 0.6281,0.3664 0.9981,1.0039 1.0332,1.8164 L 62.832,11.2422 c -0.3656,0.6281 -0.6363,0.7637 -1.0847,0.5266 l -0.0953,0.1621 1.9218,1.1211 0.095,-0.1602 C 63.2117,12.623 63.1723,12.3203 63.5559,11.6652 l 1.9839,-3.3984 c 0.4153,-0.71485 0.704,-0.75118 1.1223,-0.50508 L 66.7566,7.60078 65.4172,6.81562 64.9727,7.57734" /><path
       inkscape:connector-curvature="0"
       id="path112"
       style="fill:#0e2b58;fill-opacity:1;fill-rule:nonzero;stroke:none"
       d="m 69.7637,13.9211 0.3558,0.3621 c 0.8129,0.8234 2.1051,0.0137 3.9532,-0.1523 l 0.9046,0.9171 -0.1328,0.1329 c -0.7902,-0.6926 -2.5519,0.489 -3.9215,0.1816 0.454,0.8543 0.3012,1.5313 -0.1925,2.0184 -0.5965,0.589 -1.6578,0.675 -2.6559,-0.3368 l -1.8184,-1.8449 0.1333,-0.1316 c 0.3562,0.3601 0.6128,0.4012 1.2011,-0.1789 l 2.8164,-2.7782 c 0.6051,-0.5968 0.5524,-0.8683 0.2118,-1.214 l 0.1332,-0.1317 1.5941,1.6172 -0.1336,0.1297 c -0.3629,-0.3672 -0.6672,-0.3457 -1.2164,0.1961 l -1.2324,1.2133 z m -2.2438,2.2148 0.4641,0.4707 c 0.6808,0.6903 1.5457,0.7188 2.1426,0.1297 0.5175,-0.5105 0.7418,-1.3183 -0.0082,-2.0801 l -0.5426,-0.5496 -2.0559,2.0293" /><path
       inkscape:connector-curvature="0"
       id="path114"
       style="fill:#0e2b58;fill-opacity:1;fill-rule:nonzero;stroke:none"
       d="m 80.1379,22.7129 c -0.0992,-0.3535 -0.6375,-1.3426 -0.7863,-1.5867 -1.445,-2.3723 -3.3567,-2.291 -4.5993,-1.5344 -1.9105,1.1621 -2.1007,3.2668 -1.2921,4.593 0.4636,0.7625 0.8957,0.8992 1.1488,1.3144 0.1023,0.1688 0.1015,0.2723 0.0031,0.409 l 0.1043,0.1711 1.5906,-0.9699 -0.0918,-0.1504 c -1.1129,0.4836 -2.1019,-0.166 -2.5488,-0.9004 -0.6762,-1.1102 -0.2172,-2.5371 1.2613,-3.4375 1.5813,-0.9649 3.3219,-0.7344 4.1012,0.5461 0.2348,0.3875 0.4559,0.9598 -0.0246,1.2539 l -0.5832,0.3543 c -0.6578,0.4004 -0.9859,0.3945 -1.2551,-0.0469 l -0.1262,-0.207 -0.1605,0.0976 1.3312,2.1829 0.1586,-0.0969 c -0.3203,-0.5281 -0.1519,-0.8242 0.3184,-1.1094 l 1.4504,-0.8828" /><path
       inkscape:connector-curvature="0"
       id="path116"
       style="fill:#0e2b58;fill-opacity:1;fill-rule:nonzero;stroke:none"
       d="m 79.9602,29.9992 1.7578,-0.507 c 0.73,-0.211 1.0156,-0.0969 1.1648,0.4219 l 0.1801,-0.0516 -0.632,-2.1906 -0.1805,0.0508 c 0.1344,0.4648 0.0391,0.7335 -0.7649,0.9668 l -3.78,1.089 c -0.72,0.207 -1.0063,0.1309 -1.1629,-0.4094 l -0.1797,0.052 0.6328,2.1902 0.1801,-0.0508 c -0.1375,-0.4765 -0.0113,-0.7527 0.7613,-0.9753 l 1.727,-0.4993 0.9531,3.3028 -1.7266,0.4992 c -0.7418,0.2129 -1.0094,0.1199 -1.1594,-0.3984 l -0.1792,0.0507 0.6257,2.1715 0.1801,-0.0523 c -0.15,-0.5188 0.0449,-0.7602 0.7652,-0.9668 l 3.7801,-1.091 c 0.7203,-0.2071 1.0129,-0.1094 1.1621,0.4093 l 0.1809,-0.0507 -0.6273,-2.17 -0.1801,0.0508 c 0.1375,0.4774 0.0371,0.7235 -0.7684,0.9551 l -1.7566,0.5086 -0.9535,-3.3055" /><path
       inkscape:connector-curvature="0"
       id="path118"
       style="fill:#0e2b58;fill-opacity:1;fill-rule:nonzero;stroke:none"
       d="M 3.67227,42.0273 C 3.67109,41.7199 3.42031,41.4719 3.11211,41.4746 c -0.30586,0 -0.55391,0.252 -0.55156,0.5566 0.00195,0.3098 0.25234,0.5555 0.55859,0.5547 0.30703,-0.0035 0.55469,-0.2519 0.55313,-0.5586" /><path
       inkscape:connector-curvature="0"
       id="path120"
       style="fill:#0e2b58;fill-opacity:1;fill-rule:nonzero;stroke:none"
       d="m 82.6215,42.0156 c -0.0027,-0.3066 -0.2531,-0.5547 -0.5606,-0.5515 -0.307,7e-4 -0.5535,0.2507 -0.5527,0.5586 0.002,0.3066 0.2523,0.5539 0.5586,0.5531 0.307,-0.0035 0.5559,-0.2524 0.5547,-0.5602" /><path
       inkscape:connector-curvature="0"
       id="path122"
       style="fill:#0e2b58;fill-opacity:1;fill-rule:nonzero;stroke:none"
       d="m 58.7793,13.3613 c 0.4441,0.2317 0.8512,0.5403 1.2789,0.8067 0.3641,0.2187 0.7273,0.4425 1.0906,0.6648 0.327,0.2434 0.6246,0.5207 0.961,0.7512 0.3507,0.2551 0.6988,0.5098 1.0488,0.7629 0.0742,0.0691 0.1473,0.1414 0.2187,0.2117 0.0829,0.043 0.1653,0.0898 0.2454,0.1379 0.2988,0.2265 0.6023,0.4961 0.88,0.7547 0.2246,0.207 0.3914,0.4433 0.6266,0.6535 0.2328,0.2117 0.4906,0.4031 0.7297,0.6141 0.0996,0.0917 0.1539,0.1925 0.2426,0.2824 0.1929,0.1875 0.3933,0.3672 0.5683,0.5691 0.1207,0.1504 0.2438,0.3 0.3676,0.4485 0.4355,0.4179 0.8313,0.8777 1.1953,1.3457 0.2961,0.3523 0.593,0.7089 0.8871,1.0605 0.1953,0.2742 0.3914,0.5516 0.5836,0.8262 0.1024,0.1093 0.2043,0.2187 0.3086,0.3281 0.316,0.4422 0.6348,0.8855 0.952,1.3309 0.0933,0.1523 0.1496,0.3086 0.2375,0.464 0.0718,0.1024 0.1422,0.2059 0.2121,0.3028 0.0621,0.1289 0.1199,0.2585 0.1816,0.3886 0.2152,0.3672 0.4168,0.7352 0.616,1.1074 0.1676,0.2848 0.3367,0.5704 0.5028,0.8582 0.1394,0.2891 0.2261,0.595 0.3558,0.886 0.1465,0.3055 0.2895,0.6113 0.434,0.9156 0.4879,1.3156 0.9695,2.634 1.3609,3.9926 0.0293,0.1601 0.0582,0.325 0.0864,0.4851 0.1062,0.4973 0.2426,1.0098 0.3414,1.5176 0.0301,0.261 0.0586,0.5235 0.089,0.7852 0.0715,0.425 0.1575,0.8828 0.2161,1.3144 0.0277,0.3465 0.0546,0.6985 0.0816,1.0469 0.0262,0.1359 0.0516,0.2715 0.0801,0.4094 0.0144,0.291 0.0312,0.5828 0.048,0.8738 0.0156,0.1477 0.061,0.2844 0.068,0.4375 -4e-4,0.2031 -0.0059,0.4082 -0.0086,0.6113 0.091,1.3184 0.1144,2.7512 0.0434,4.0559 -0.0407,0.6805 -0.1989,1.3516 -0.2676,2.0148 -0.0781,0.7043 -0.1309,1.4004 -0.2719,2.07 -0.3883,1.8429 -0.9012,3.6519 -1.5504,5.3726 -0.093,0.2481 -0.2359,0.475 -0.3379,0.7176 -0.2113,0.5117 -0.4492,0.9867 -0.6969,1.4742 -0.0808,0.1406 -0.1609,0.2789 -0.2421,0.4195 -0.2016,0.4262 -0.3422,0.8887 -0.5664,1.3032 -0.1403,0.2558 -0.304,0.4734 -0.4668,0.7191 -0.1235,0.2664 -0.2508,0.5313 -0.3747,0.7988 -0.466,0.7247 -0.95,1.4356 -1.4347,2.1457 -0.1848,0.2145 -0.3688,0.4266 -0.5516,0.6395 -0.2043,0.2629 -0.4074,0.527 -0.6117,0.7906 -0.1953,0.1973 -0.4109,0.3617 -0.584,0.5813 -0.0988,0.1254 -0.1566,0.2578 -0.2609,0.3847 -0.1531,0.1668 -0.3059,0.3352 -0.459,0.5 -0.091,0.0844 -0.1832,0.1672 -0.2742,0.2524 -0.2332,0.264 -0.4504,0.5359 -0.6914,0.7953 -0.2114,0.1969 -0.4207,0.3949 -0.6297,0.5934 -0.2043,0.2039 -0.4055,0.4089 -0.6094,0.6152 -0.2793,0.2168 -0.5609,0.4336 -0.843,0.6488 -0.2875,0.2551 -0.5789,0.5059 -0.8683,0.761 -0.1922,0.1449 -0.3996,0.2453 -0.5949,0.3742 -0.2465,0.1808 -0.4977,0.3621 -0.7469,0.5418 -0.1875,0.1328 -0.3473,0.2777 -0.527,0.425 -0.1351,0.0808 -0.2695,0.1652 -0.4039,0.2476 -0.1804,0.1282 -0.3601,0.2547 -0.5433,0.384 -0.595,0.3641 -1.2328,0.641 -1.8512,0.9598 -0.225,0.1406 -0.4508,0.2836 -0.6738,0.4254 -0.3911,0.1957 -0.7786,0.3922 -1.1664,0.5879 -0.318,0.1519 -0.6493,0.2625 -0.975,0.3906 -0.159,0.0887 -0.32,0.1762 -0.4782,0.2652 -0.1234,0.0438 -0.2484,0.0863 -0.3711,0.1301 -0.1953,0.0867 -0.3902,0.175 -0.5859,0.2613 -0.6113,0.2227 -1.2535,0.3813 -1.8871,0.5762 -0.2977,0.0898 -0.6098,0.2125 -0.9113,0.3 -0.6614,0.1934 -1.3188,0.2949 -2.0036,0.448 -0.4371,0.1 -0.8964,0.2262 -1.3429,0.302 -0.2899,0.0402 -0.5821,0.0785 -0.8688,0.1191 -0.4832,0.1 -1.0203,0.1864 -1.5234,0.2473 -0.191,0.0047 -0.3867,0.0094 -0.5817,0.0164 -0.1328,0.0184 -0.2695,0.0356 -0.4066,0.0539 -0.2625,0.0035 -0.5246,0.0078 -0.7887,0.0129 -0.5902,0.0414 -1.2152,0.0887 -1.8363,0.0934 -0.2406,-0.0703 -0.5793,-0.0282 -0.8469,-0.0266 -0.3207,0 -0.641,-0.0016 -0.9617,-0.0016 -0.0887,-0.0144 -0.1754,-0.0285 -0.2637,-0.0421 -0.2226,-0.0059 -0.4461,-0.0118 -0.6695,-0.0172 -0.1183,-0.0278 -0.2363,-0.0567 -0.3551,-0.0856 -0.1152,-0.0152 -0.2308,-0.0277 -0.3468,-0.0426 -0.1118,0 -0.2254,0.0106 -0.3215,-0.0277 -0.066,-0.0101 -0.1348,-0.0184 -0.2024,-0.0277 -0.1437,0 -0.2965,0.0047 -0.4097,-0.0551 -0.3133,8e-4 -0.7785,-0.0391 -1.0211,-0.1707 C 36.7836,75.6172 36.7148,75.6078 36.6477,75.5977 36.4488,75.6 36.1863,75.5746 36.0328,75.4848 35.518,75.4883 35.0922,75.2695 34.6254,75.1586 34.3773,75.1 34.082,75.0723 33.8695,74.9434 c -0.2031,0.0011 -0.423,-0.0496 -0.584,-0.1422 -0.325,0.0015 -0.607,-0.1875 -0.8847,-0.295 -0.1641,-0.0632 -0.3696,-0.0667 -0.516,-0.1644 -0.325,0.0012 -0.6121,-0.1871 -0.8805,-0.3074 C 30.8191,73.9547 30.6332,73.8785 30.448,73.8 29.4465,73.3793 28.468,72.9 27.5051,72.3984 27.3434,72.2941 27.1797,72.1898 27.0172,72.0875 25.8633,71.5035 24.7234,70.8625 23.7031,70.0316 23.402,69.816 23.1008,69.6008 22.8004,69.3852 22.643,69.2445 22.484,69.1016 22.3277,68.9609 c -0.2933,-0.2164 -0.5996,-0.4 -0.8839,-0.6382 -0.5793,-0.4911 -1.1258,-1.0403 -1.6641,-1.5731 -0.3293,-0.2992 -0.6621,-0.6004 -0.9938,-0.9 -0.1136,-0.1305 -0.2269,-0.2605 -0.3382,-0.3922 -0.1508,-0.1398 -0.3028,-0.2797 -0.452,-0.4191 -0.2383,-0.2434 -0.4043,-0.5348 -0.6344,-0.7711 -0.1996,-0.2027 -0.3988,-0.3918 -0.5793,-0.6164 -0.0808,-0.1117 -0.1664,-0.2246 -0.2472,-0.3352 -0.3493,-0.3918 -0.6887,-0.7769 -0.9895,-1.2 -0.2062,-0.3203 -0.4121,-0.6418 -0.618,-0.964 -0.2972,-0.3821 -0.6324,-0.875 -0.8609,-1.2946 -0.0687,-0.1371 -0.1363,-0.273 -0.2035,-0.4101 -0.1996,-0.334 -0.4004,-0.666 -0.6012,-0.9965 C 13.0879,58.1031 12.9703,57.732 12.7965,57.384 12.7148,57.2492 12.6348,57.1152 12.5547,56.9805 12.3852,56.6672 12.2426,56.3535 12.0621,56.0441 11.9805,55.8434 11.8977,55.6418 11.8148,55.4391 11.7145,55.2324 11.616,55.025 11.5164,54.8176 11.4363,54.5793 11.3539,54.3418 11.2738,54.1031 11.1758,53.8473 11.0777,53.5914 10.9785,53.3344 10.4844,51.7375 10.0699,50.1332 9.73047,48.4414 9.70156,48.1223 9.67344,47.8043 9.64492,47.484 9.60078,47.1148 9.47422,46.7129 9.44336,46.3461 9.41836,46.0617 9.42969,45.7379 9.34961,45.4719 9.32852,45.2473 9.30859,45.0234 9.2875,44.8023 9.23711,43.4316 9.27383,42.1301 9.30898,40.8047 9.32734,40.168 9.45234,39.5312 9.50781,38.9062 9.52227,38.6348 9.53516,38.3645 9.54883,38.091 c 0.08672,-0.8535 0.23242,-1.7187 0.36523,-2.5668 0.0625,-0.2156 0.12114,-0.4312 0.18124,-0.648 0.1426,-0.6692 0.2926,-1.3164 0.4863,-1.959 0.0563,-0.1445 0.1133,-0.291 0.1696,-0.4375 0.0355,-0.1535 0.0742,-0.3059 0.1093,-0.4594 0.2524,-0.7098 0.5047,-1.4207 0.7555,-2.1277 0.1258,-0.2664 0.2508,-0.536 0.3742,-0.8028 0.0719,-0.1757 0.1094,-0.3738 0.1852,-0.5476 0.1922,-0.4543 0.4738,-0.8613 0.7035,-1.2988 0.1813,-0.3567 0.3969,-0.6973 0.5766,-1.0547 0.0519,-0.1282 0.105,-0.2571 0.1566,-0.386 0.0625,-0.0789 0.125,-0.1523 0.1875,-0.2304 0.0692,-0.1493 0.1375,-0.2981 0.2066,-0.4481 0.1696,-0.298 0.3754,-0.5859 0.5915,-0.8605 0.1281,-0.1629 0.2339,-0.3477 0.364,-0.5117 0.175,-0.2208 0.3723,-0.4227 0.5367,-0.6493 0.1266,-0.1886 0.2528,-0.3742 0.3805,-0.5605 0.2383,-0.2852 0.4766,-0.5715 0.7172,-0.8527 0.1977,-0.25 0.3957,-0.5008 0.5918,-0.7508 0.248,-0.259 0.4945,-0.5168 0.7418,-0.7746 0.2027,-0.2356 0.3777,-0.5137 0.6117,-0.7286 0.3336,-0.3054 0.6613,-0.6171 0.9691,-0.9277 0.1653,-0.166 0.3293,-0.3328 0.4922,-0.4969 0.2703,-0.2355 0.5856,-0.4035 0.845,-0.6496 0.25,-0.2429 0.5019,-0.4851 0.7558,-0.7285 0.1832,-0.1406 0.3656,-0.2812 0.5481,-0.4211 0.2254,-0.1929 0.4172,-0.4156 0.6613,-0.5887 0.2933,-0.1992 0.5676,-0.4316 0.8734,-0.6082 0.2028,-0.1171 0.4192,-0.1781 0.6141,-0.3078 0.2269,-0.1601 0.4539,-0.3203 0.6808,-0.4804 0.2227,-0.1454 0.4774,-0.2606 0.7051,-0.4004 0.8602,-0.5274 1.7285,-0.9813 2.6328,-1.4141 0.3977,-0.1922 0.7731,-0.4363 1.1985,-0.5809 0.3906,-0.1527 0.7793,-0.3039 1.1695,-0.4531 0.1418,-0.039 0.2856,-0.0832 0.4266,-0.1222 0.3836,-0.1465 0.764,-0.293 1.1465,-0.4414 0.1027,-0.0301 0.205,-0.0614 0.3089,-0.0918 0.3297,-0.1289 0.6575,-0.2801 1.0024,-0.375 0.4156,-0.0821 0.8312,-0.1602 1.2473,-0.2422 0.6191,-0.12894 1.2671,-0.32112 1.8992,-0.418 0.2312,-0.01953 0.4617,-0.03984 0.6965,-0.05547 0.3062,-0.03906 0.6144,-0.1125 0.9335,-0.14101 0.2422,-0.01329 0.4832,-0.03086 0.725,-0.04649 0.1582,-0.02344 0.3153,-0.04805 0.4704,-0.07344 0.1652,-0.00586 0.33,-0.01171 0.4953,-0.0164 0.3801,-0.05586 0.7574,-0.11446 1.1367,-0.1711 0.1937,-0.00976 0.3894,-0.01757 0.5828,-0.02539 0.1172,0.01368 0.2352,0.02735 0.3523,0.03907 0.3465,-0.00196 0.7594,-0.03907 1.1067,-0.05547 0.2223,-0.00508 0.4297,0.01054 0.6418,0 0.4363,-0.02266 0.8519,0.06328 1.257,0.12304 0.1832,0.00782 0.3684,0.01368 0.5512,0.01954 0.2488,0.03007 0.5152,0.07304 0.7605,0.09257 0.9035,0.08321 1.7778,0.18477 2.6535,0.35664 0.2926,0.07813 0.5872,0.1543 0.8805,0.23243 0.3684,0.07308 0.736,0.15118 1.1031,0.22538 0.1918,0.0547 0.3614,0.1504 0.5422,0.2227 0.3,0.089 0.5985,0.1769 0.8989,0.2668 0.1285,0.0468 0.2554,0.0894 0.3836,0.1367 0.2179,0.0586 0.4136,0.0816 0.63,0.1484 0.4414,0.1524 0.8813,0.3094 1.3258,0.4637 0.2617,0.1281 0.5254,0.2488 0.7875,0.3738 0.2563,0.0988 0.5117,0.2153 0.7567,0.3293 0.0714,0.0422 0.1394,0.0871 0.2101,0.1289 0.2652,0.125 0.541,0.25 0.7992,0.3836 0.3004,0.1723 0.6008,0.3402 0.9016,0.5129 0.1543,0.0781 0.325,0.123 0.4789,0.2031" /><path
       inkscape:connector-curvature="0"
       id="path124"
       style="fill:#ffffff;fill-opacity:1;fill-rule:nonzero;stroke:none"
       d="m 42.2422,12.0039 c -0.0102,0 -0.0199,0 -0.0297,0 0,0.0109 0,0.0195 0,0.0305 -0.0449,0 -0.0672,0.0554 -0.0918,0.0867 -0.1129,0.1797 -0.2262,0.3594 -0.3391,0.5391 -0.2355,0.2746 -0.473,0.5515 -0.7093,0.83 -0.7078,0.6731 -1.5368,1.2493 -2.4059,1.625 -0.1793,0.0645 -0.3602,0.1321 -0.5394,0.1965 -0.2,0.0867 -0.3836,0.202 -0.5918,0.2781 -0.1946,0.0723 -0.4024,0.0957 -0.6098,0.134 -0.2098,0.0399 -0.425,0.0985 -0.6406,0.1465 -0.4453,0.0899 -0.8938,0.2235 -1.345,0.3047 -0.4375,0.0547 -0.8722,0.1074 -1.3097,0.1648 -0.3489,0.0176 -0.6828,0.0118 -1.0192,0.043 -1.5797,0.1602 -3.1425,0.3137 -4.6691,0.5598 -0.5199,0.0879 -1.0285,0.0898 -1.5391,0.1797 -0.5058,0.0894 -1.0144,0.2363 -1.4961,0.3894 -0.2671,0.084 -0.5406,0.1465 -0.798,0.2442 -0.2547,0.1132 -0.5078,0.2277 -0.7613,0.3429 -0.1754,0.0797 -0.3508,0.159 -0.5254,0.2352 -0.1207,0.0781 -0.2434,0.157 -0.3672,0.2363 -0.0582,0.0324 -0.1172,0.0625 -0.1758,0.0969 -0.4172,0.334 -0.7457,0.7957 -1.0664,1.2031 -0.2469,0.3145 -0.3762,0.6805 -0.4934,1.0594 -0.0558,0.1887 -0.114,0.3762 -0.1722,0.5637 -0.1852,0.8726 -0.166,1.7851 -0.1758,2.739 -0.0137,0.1848 -0.0316,0.3692 -0.0473,0.5567 0.0254,0.7082 0.07,1.4277 0.084,2.1289 -0.0055,0.1543 -0.0101,0.3086 -0.0172,0.466 0.0039,0.7078 0.0074,1.418 0.0117,2.1277 0.0032,0.4668 0.0391,0.927 0.0352,1.3703 -0.0195,1.9121 0.0145,3.8465 0.0574,5.7762 -0.0152,0.2715 -0.0301,0.5441 -0.0469,0.8184 -0.0027,0.3007 0.0309,0.5859 0.0317,0.8722 -0.0051,0.1367 -0.009,0.2742 -0.0117,0.411 0.0359,0.4347 0.073,0.8742 0.1082,1.3105 0.0082,0.3399 -0.0215,0.6731 -0.0215,0.9902 0.0019,0.2395 0.0383,0.4825 0.0277,0.7305 -0.0082,0.2012 -0.0551,0.3906 -0.0504,0.6129 0.0114,0.1844 0.0227,0.3699 0.0309,0.5539 -0.0039,0.3715 -0.0285,0.7762 -0.0207,1.1668 0.0047,0.2254 0.0363,0.4633 0.0305,0.7008 -0.0063,0.259 -0.0571,0.516 -0.05,0.7879 0.0304,0.3195 0.0597,0.6406 0.0894,0.9609 0.0086,0.3137 -0.018,0.6145 -0.0168,0.9063 0.0031,0.6535 0.032,1.3609 0.0356,2.0406 0.0054,0.1371 0.0121,0.2719 0.016,0.4082 -0.0137,0.2914 -0.0301,0.584 -0.0453,0.8754 0.0234,0.2515 0.0453,0.5051 0.0707,0.7582 0.023,1.2141 0.0195,2.4629 0.0468,3.6476 0.002,0.4083 0.002,0.8161 0.0039,1.2243 -0.0117,0.2879 -0.0546,0.5691 -0.0476,0.8742 0.0101,0.1949 0.0199,0.3906 0.032,0.5832 0.0059,1.0234 -0.0179,2.0504 -0.0121,3.0918 0.0024,0.3785 0.0356,0.7183 0.0336,1.0808 -0.0059,0.4094 -0.0223,0.8516 -0.0203,1.2829 0.0019,0.2804 0.0324,0.5531 0.034,0.8457 0.0012,0.2328 -0.0449,0.5589 0.0324,0.7582 0.0016,0.0578 0.0695,0.0484 0.118,0.0543 0.4199,0.0589 0.9484,0.1132 1.3984,0.0441 0.5547,-0.0855 1.1145,0.0043 1.6934,8e-4 0.5148,-0.0035 1.0293,-0.0043 1.5461,-0.0055 0.3113,0.0172 0.6211,0.0332 0.9343,0.0504 0.5813,-0.0035 1.1203,-0.0391 1.6895,-0.034 0.6832,0.0051 1.4219,0.016 2.1324,0.0125 0.2024,-0.0094 0.4063,-0.0199 0.6113,-0.0277 0.2895,0.016 0.5828,0.0289 0.8754,0.0449 0.243,-0.0059 0.4707,-0.0566 0.7289,-0.0578 0.327,-0.0024 0.6235,0.0289 0.9313,0.0207 0.4797,-0.009 0.9941,-0.0113 1.4902,-0.0391 0.232,-0.0187 0.4649,-0.0355 0.6981,-0.0543 0.6863,0.0071 1.4011,0.0356 2.073,0.043 0.4578,-0.0129 0.9152,-0.0242 1.3707,-0.0379 0.3871,0.0051 0.7707,0.0793 1.166,0.077 0.277,-0.0016 0.5832,-0.0278 0.8758,-0.0289 0.2629,0.0035 0.5246,0.0093 0.7871,0.0113 0.3008,-0.0231 0.6035,-0.0469 0.9047,-0.0723 0.2336,0.0114 0.4676,0.0219 0.7004,0.0332 0.4578,-0.0172 0.9125,-0.0332 1.3707,-0.0508 0.2152,0.0176 0.4285,0.0336 0.6422,0.0508 1.2449,0.0325 2.418,0.0012 3.6746,0.0129 0.275,0.016 0.5469,0.0344 0.8176,0.0508 0.5609,0.0148 1.1535,-0.0246 1.6918,0.0148 0.1191,0.0106 0.234,0.0231 0.3515,0.0325 0.4672,-0.0465 1.0137,0.0035 1.5161,-0.0082 0.2085,-0.0036 0.3808,-0.0543 0.5824,-0.0586 0.2238,0.0078 0.4488,0.0125 0.6707,0.0203 0.3597,-0.0125 0.7754,-0.0563 1.1375,-0.0516 0.2523,8e-4 0.4957,0.0496 0.7613,0.0422 0.1852,-0.016 0.3676,-0.0332 0.5535,-0.0504 0.2571,-0.0047 0.55,0.0324 0.816,0.0113 0.1844,-0.0285 0.3688,-0.055 0.5551,-0.0812 0.1539,0.0051 0.3102,0.0125 0.4668,0.0195 0.1641,-0.0109 0.3293,-0.0187 0.4961,-0.0281 0.1649,0.0059 0.3297,0.016 0.4938,0.0246 0.3132,0.0043 0.6128,-0.0324 0.9043,-0.0117 0.4761,0.0355 0.9429,-0.0348 1.4304,-0.0301 0.2332,0.0149 0.466,0.0309 0.6985,0.0473 0.1566,-0.009 0.3117,-0.0172 0.4683,-0.025 0.1465,-0.0016 0.3305,0.0172 0.4535,-0.0328 0.0098,-0.0078 0.0215,-0.018 0.0336,-0.0262 0.1035,-0.1535 0.0645,-0.4383 0.0621,-0.6457 -0.0039,-0.666 -0.0332,-1.3109 -0.0054,-1.9531 0.0152,-0.4067 0.0097,-0.8727 0.0136,-1.2836 -0.0082,-0.1364 -0.0136,-0.2731 -0.0218,-0.4067 0.0097,-0.2929 0.0234,-0.5832 0.0332,-0.875 -0.0153,-0.2925 -0.0309,-0.584 -0.0489,-0.8781 0.0239,-0.3777 0.0489,-0.7594 0.0727,-1.1371 -0.018,-0.143 -0.0336,-0.2922 -0.0508,-0.4371 -0.0098,-0.2543 0.041,-0.484 0.0391,-0.7305 -0.016,-0.2523 -0.0317,-0.5047 -0.0473,-0.7574 -0.0016,-0.3109 -0.0074,-0.6219 -0.0113,-0.932 -0.0156,-0.234 -0.0352,-0.4676 -0.0512,-0.6996 0.0274,-0.3805 0.0551,-0.7594 0.0781,-1.1372 -0.0097,-0.1375 -0.0211,-0.2746 -0.0351,-0.4101 -0.0113,-0.3152 -0.0352,-0.632 -0.0309,-0.9336 0.0055,-0.5398 0.0504,-1.1422 0.0563,-1.6617 -0.0133,-0.1176 -0.027,-0.234 -0.0391,-0.3516 0.0098,-0.2422 0.0195,-0.4832 0.0293,-0.7262 -0.0137,-0.2812 -0.041,-0.598 -0.0426,-0.907 0,-0.2258 0.0485,-0.4215 0.0426,-0.6418 -0.0137,-0.116 -0.0293,-0.234 -0.0465,-0.3504 0.0074,-0.1543 0.0137,-0.3113 0.0172,-0.4644 -0.0133,-0.5856 -0.0664,-1.1524 -0.0586,-1.7524 0.0098,-0.2906 0.0176,-0.582 0.0293,-0.875 0.0137,-0.1179 0.0274,-0.2332 0.0449,-0.3504 -0.0074,-0.1949 -0.0191,-0.3886 -0.0273,-0.5832 0.0059,-0.1257 0.0141,-0.2519 0.0199,-0.3781 -0.018,-0.2137 -0.0336,-0.4277 -0.0508,-0.6418 0.0016,-0.2898 0.0719,-0.5953 0.0606,-0.9043 -0.0313,-0.8531 -0.0785,-1.659 -0.0844,-2.5086 -0.002,-0.3445 0.0531,-0.6504 0.0508,-0.9922 -0.0172,-0.1855 -0.0367,-0.3699 -0.0547,-0.5535 -0.0039,-0.3996 -0.0074,-0.7988 -0.0137,-1.1965 -0.0195,-0.2136 -0.0394,-0.4277 -0.0566,-0.6414 0.0098,-0.8078 0.0215,-1.6133 0.0336,-2.4203 -0.0043,-0.5613 -0.0614,-1.1582 -0.0555,-1.7215 0.0141,-0.3015 0.0293,-0.6023 0.0414,-0.9062 -0.0058,-0.1172 -0.0137,-0.2324 -0.0195,-0.3504 -0.0024,-0.2129 -0.0039,-0.4262 -0.0059,-0.6418 -0.0039,-0.5203 0.0215,-1.0449 0.0196,-1.5438 -0.0039,-0.6054 0.0019,-1.2589 -0.0118,-1.8957 -0.0078,-0.1765 -0.0156,-0.3488 -0.0214,-0.5242 0.0117,-0.1086 0.0253,-0.214 0.039,-0.3215 -0.0176,-0.3711 -0.0371,-0.7402 -0.0527,-1.1082 -0.0078,-0.3117 0.0371,-0.6418 0.0156,-0.9621 -0.0352,-0.1953 -0.0723,-0.3914 -0.1055,-0.5879 -0.0277,-0.2109 -0.055,-0.4218 -0.08,-0.6347 -0.0747,-0.3614 -0.3387,-0.8828 -0.5309,-1.1914 -0.166,-0.2664 -0.4441,-0.411 -0.6574,-0.625 -0.1289,-0.125 -0.2738,-0.209 -0.4082,-0.3211 -0.2492,-0.2129 -0.4961,-0.4375 -0.7785,-0.5871 -0.1801,-0.0672 -0.3598,-0.1348 -0.5403,-0.2012 -0.3636,-0.1484 -0.7277,-0.3125 -1.1004,-0.4539 -0.3422,-0.1289 -0.7054,-0.2246 -1.0468,-0.3528 -0.0829,-0.0312 -0.1723,-0.0625 -0.2582,-0.0906 -0.1879,8e-4 -0.4407,-0.0851 -0.586,-0.173 -0.1629,0.0019 -0.334,-0.0176 -0.4652,-0.0852 -0.2485,0.0031 -0.4246,-0.0691 -0.6258,-0.1433 -0.0629,-0.0196 -0.1273,-0.0379 -0.1906,-0.0555 -0.1024,0 -0.2164,-0.0109 -0.2949,-0.0559 -0.1934,8e-4 -0.6438,-0.0886 -0.7883,-0.1707 -0.1715,0 -0.3809,0.0313 -0.5242,-0.0273 -0.1012,0 -0.2157,-0.0117 -0.2942,-0.0567 -0.1562,0.002 -0.3422,0.0196 -0.4668,-0.0558 -0.0762,-0.0086 -0.1562,-0.0184 -0.2336,-0.0281 -0.1222,0 -0.2527,-0.0039 -0.3496,-0.0559 -0.1082,0 -0.2332,-0.0125 -0.3207,-0.0566 -0.2035,0.0019 -0.5078,0.0332 -0.6719,-0.0567 -0.0769,-0.0078 -0.1554,-0.0156 -0.2328,-0.0254 -0.1988,0.0032 -0.4441,0.0735 -0.6136,-0.0273 -0.1165,0.0019 -0.2555,0.0176 -0.3508,-0.0254 -0.059,-0.0117 -0.116,-0.0195 -0.1739,-0.0273 -0.1875,0 -0.4257,0.0351 -0.5839,-0.0262 -0.0782,-0.011 -0.1555,-0.0196 -0.2332,-0.0285 -0.059,-0.0098 -0.1176,-0.0196 -0.175,-0.0274 -0.059,-0.0117 -0.118,-0.0215 -0.1739,-0.0293 -0.0886,-0.0097 -0.1765,-0.0176 -0.2648,-0.0293 -0.1219,0.002 -0.2551,-0.0039 -0.3504,-0.0547 -0.0785,-0.0078 -0.1559,-0.0195 -0.234,-0.0273 -0.1309,0 -0.2805,0.0039 -0.3797,-0.0574 -0.1238,0 -0.2554,-0.0012 -0.3492,-0.0567 -0.0996,0 -0.2172,-0.0117 -0.2914,-0.0539 -0.093,0 -0.1918,-0.0164 -0.2641,-0.0586 -0.0574,-0.0086 -0.116,-0.0175 -0.1746,-0.03 -0.1492,0.0015 -0.348,-0.043 -0.4683,-0.1106 -0.0953,0 -0.1899,-0.0164 -0.2633,-0.0594 -0.3047,0.002 -0.5684,-0.1367 -0.8262,-0.2375 -0.2004,-0.073 -0.4023,-0.1465 -0.6031,-0.2207 -0.3914,0.002 -0.8063,-0.3593 -1.0945,-0.5984 -0.2528,-0.207 -0.5789,-0.3098 -0.827,-0.5441 -0.693,-0.6415 -1.1098,-1.5047 -1.4535,-2.3399" /><path
       inkscape:connector-curvature="0"
       id="path126"
       style="fill:#0e2b58;fill-opacity:1;fill-rule:nonzero;stroke:none"
       d="m 45.4945,16.1477 c 0.1793,0.075 0.3586,0.1511 0.5399,0.2273 0.3543,0.1055 0.7273,0.173 1.1023,0.2539 0.7,0.1516 1.3793,0.3352 2.0805,0.4824 0.1738,0.011 0.3449,0.0227 0.5172,0.034 0.2718,0.05 0.5371,0.1176 0.8218,0.143 0.3684,0.0137 0.7387,0.0254 1.1083,0.0371 0.4445,0.0332 0.896,0.1289 1.3445,0.1609 0.4012,0.0293 0.7992,0.043 1.1926,0.0938 0.3535,0.0547 0.7039,0.1144 1.0543,0.1719 0.1164,0.0078 0.2324,0.0183 0.3457,0.0265 0.5437,0.0875 1.0672,0.2168 1.5859,0.3375 0.1781,0.0434 0.3477,0.0625 0.5176,0.1117 0.4992,0.1473 0.9836,0.3426 1.4687,0.4981 0.4078,0.1328 0.8012,0.2558 1.1836,0.4297 0.3317,0.1511 0.6094,0.364 0.9192,0.5574 0.5504,0.3469 1.1519,0.7148 1.4949,1.2961 0.1523,0.2578 0.2933,0.6414 0.3398,0.9472 0.0121,0.1446 0.0219,0.2911 0.0317,0.4376 0.1054,0.6296 0.0898,1.3203 0.082,1.9785 0.0117,0.2332 0.0195,0.4675 0.0316,0.7019 -0.0082,0.125 -0.014,0.252 -0.0238,0.3781 0,0.252 0,0.5047 -0.0016,0.7567 -0.014,0.0976 -0.0257,0.1965 -0.0394,0.2941 0.0098,0.0867 0.0199,0.1739 0.0301,0.2617 -0.0102,0.086 -0.0203,0.1747 -0.0321,0.2625 0.004,0.1719 0.0512,0.3137 0.0512,0.4954 0.0016,0.1953 -0.0492,0.3378 -0.0512,0.5261 -0.0019,0.2227 0.0547,0.3879 0.0614,0.6106 0.0129,0.7676 0.0054,1.5222 0.0347,2.2781 -0.0082,0.1836 -0.014,0.3672 -0.0191,0.5508 0.0031,0.673 0.007,1.3429 0.0098,2.0117 0.0386,1.8281 0.0156,3.7766 0.0558,5.6035 -0.0109,0.1926 -0.0195,0.3887 -0.0332,0.582 -0.007,0.0598 -0.0156,0.1153 -0.0226,0.1739 0.0093,0.1457 0.041,0.3086 0.0347,0.4679 -0.0121,0.1075 -0.0238,0.2149 -0.0347,0.3204 0.0054,0.1511 0.0449,0.3035 0.0422,0.4675 -0.0036,0.3379 -0.084,0.6243 -0.0821,0.9629 0.002,0.2324 0.0352,0.4317 0.0508,0.6418 -0.0016,0.1067 -0.0055,0.2153 -0.0098,0.3211 0.0157,0.1051 0.0313,0.216 0.0477,0.3203 -0.0141,0.127 -0.0281,0.2524 -0.0457,0.3805 0.0176,0.1441 0.0316,0.2906 0.0473,0.4355 -0.0043,0.1329 -0.045,0.2411 -0.045,0.3817 0.0039,0.7961 0.0102,1.5937 0.0141,2.3898 0.0012,0.1821 0.0484,0.3242 0.0547,0.4989 0.0054,0.1718 -0.0488,0.3007 -0.0438,0.4636 0.0145,0.0879 0.0297,0.1778 0.0438,0.2641 0.0129,0.2625 0.0254,0.5242 0.041,0.7871 -0.0063,0.4 -0.0102,0.8375 -0.0258,1.2547 -0.0152,0.1348 -0.0336,0.2707 -0.0508,0.4078 -0.0023,0.3285 0.0571,0.6176 0.0524,0.9336 -0.0129,0.2434 -0.0293,0.4855 -0.0422,0.7297 0.0098,1.8781 -0.0633,3.682 0.007,5.5453 0.0059,1.0176 0.0121,2.0387 0.0184,3.0594 0.0191,0.5535 -0.0223,1.1558 -0.0281,1.6929 -0.0051,0.5473 0.0058,1.0442 0.0097,1.6039 -0.0097,0 -0.0195,0 -0.0304,0 0,0.0614 -0.2747,0.0231 -0.3215,0.0016 -0.5418,0.007 -1.0879,0.0148 -1.6297,0.0215 -0.3531,0.0312 -0.7047,0.0559 -1.0813,0.0508 -0.105,0 -0.234,0.0117 -0.3207,-0.0274 -0.1336,-0.0125 -0.2715,-0.0269 -0.4074,-0.0406 -0.1945,0.0231 -0.3898,0.0484 -0.5863,0.0738 -0.6801,0.0047 -1.3598,0.0094 -2.0406,0.0137 -0.1911,0.0016 -0.686,0.0625 -0.8161,0.0051 -0.3504,0.0031 -0.7,0.0078 -1.0496,0.0117 -0.2652,0.0195 -0.6449,0.1312 -0.9058,0.0297 -0.0754,-0.0102 -0.1559,-0.0195 -0.2313,-0.0297 -0.2535,0.0031 -0.5062,0.0066 -0.7597,0.0102 -0.3762,0.0261 -0.7442,0.0875 -1.1368,0.0898 -0.2922,-0.0855 -0.7105,0.0562 -0.9925,-0.0543 -0.0774,-0.0094 -0.1555,-0.0184 -0.2317,-0.0277 -0.3012,0.0015 -0.6023,0.0035 -0.9055,0.0047 -0.1468,0 -0.3468,0.0273 -0.4675,-0.0278 -0.091,0.0012 -0.2188,0.0102 -0.2934,-0.0261 -0.2508,7e-4 -0.4609,0.0527 -0.6992,0.0609 -0.6012,0.0023 -1.2035,0.0078 -1.8066,0.0113 -0.2188,0.0012 -0.5426,0.0488 -0.7278,-0.0265 -0.0691,-0.0079 -0.1375,-0.0172 -0.2062,-0.0274 -0.0879,-0.0082 -0.1766,-0.0176 -0.2625,-0.0269 -0.3403,0.0015 -0.9035,0.1796 -1.1965,0.0636 -0.0586,-0.0078 -0.1153,-0.0172 -0.1738,-0.0265 -0.129,0 -0.2801,-0.0024 -0.3809,-0.0567 -0.8699,0.0035 -1.7371,0.0106 -2.5672,0.0282 -0.2199,0.0054 -0.4531,-0.0059 -0.6703,-0.0051 -0.1035,0 -0.2582,0.0429 -0.35,-0.0035 -0.2152,0.0035 -0.427,0.007 -0.6422,0.0093 -0.2969,0.0211 -0.9547,0.1399 -1.2246,0.0305 -0.1953,0.0031 -0.3887,0.0066 -0.5836,0.0078 -0.1289,0.0117 -0.2859,0.0473 -0.4105,-0.0012 -0.1723,0 -0.4036,0.0325 -0.5516,-0.0269 -0.3484,0.0027 -0.6551,0.0625 -1.0219,0.0652 -0.1156,0 -0.2515,0.0125 -0.3496,-0.0289 -0.2156,0.002 -0.5184,0.0485 -0.7,-0.0246 -0.3316,0.0012 -0.6609,0.0027 -0.9934,0.0047 -0.1542,0.0012 -0.3675,0.0312 -0.4933,-0.0258 -0.418,-0.0031 -0.8371,-0.0043 -1.2543,-0.0066 -0.2652,0.0195 -0.7781,0.1175 -1.0227,0.0195 -0.2629,0.0016 -0.7164,0.0914 -0.9336,0.0074 -0.5515,8e-4 -1.0593,0.0332 -1.6043,0.0703 -0.1921,0.0145 -0.4875,0.0789 -0.6714,-0.0023 -0.1075,0.0023 -0.2286,0.0148 -0.3207,-0.0281 -0.2086,0.0023 -0.4934,0.0465 -0.6692,-0.0239 -0.1847,0.0012 -0.4679,0.0469 -0.6148,-0.0242 -0.6899,0.0024 -1.4211,0.0371 -2.1563,0.0403 -0.2148,0 -0.5203,0.0476 -0.7011,-0.0254 -0.2657,0.0011 -0.8465,0.0562 -1.0512,-0.0231 -0.1539,0 -0.4242,0.0438 -0.5254,-0.0539 -0.1641,-0.1558 -0.0742,-0.9211 -0.0684,-1.1683 -0.0066,-0.1942 -0.0144,-0.3887 -0.0238,-0.5836 0.0063,-0.1774 0.032,-0.3618 0.0121,-0.5532 0,-0.273 4e-4,-0.5441 0.002,-0.8172 -0.0274,-0.7445 -0.0352,-1.4562 -0.0395,-2.2195 -0.0015,-0.2051 -0.0519,-0.3594 -0.0586,-0.5519 -0.009,-0.2024 0.0356,-0.3989 0.0336,-0.5821 -0.0242,-0.1855 -0.0465,-0.3711 -0.0691,-0.555 0.0101,-0.3887 0.0168,-0.777 0.0293,-1.1641 -0.0278,-0.6625 -0.0582,-1.3727 -0.0504,-2.0742 0.0101,-0.2719 0.0199,-0.5438 0.0297,-0.8141 0.0105,-0.0898 0.0222,-0.1762 0.0332,-0.2637 -0.0227,-0.166 -0.0414,-0.332 -0.0641,-0.4953 0.0129,-1.1894 -0.0199,-2.3246 -0.0269,-3.5308 -0.0028,-0.5235 0.0253,-1.0063 0.0144,-1.5168 -0.0187,-0.2512 -0.0367,-0.5047 -0.0559,-0.7598 0.0071,-0.3789 0.0149,-0.7582 0.0227,-1.1371 -0.0051,-0.7524 -0.0371,-1.5359 -0.0301,-2.3047 0.0141,-0.2719 0.0242,-0.543 0.0364,-0.8164 -0.0172,-0.3496 -0.0364,-0.6992 -0.0563,-1.0496 -0.0066,-1.3801 0.0168,-2.8125 0.0285,-4.2012 0.0055,-0.3449 -0.0578,-0.634 -0.0586,-0.9902 -0.0031,-0.3703 -0.0051,-0.7395 -0.0051,-1.1074 0.0079,-0.168 0.0149,-0.3332 0.0215,-0.4973 -0.0261,-1.2559 -0.0687,-2.4609 -0.0757,-3.7332 -0.004,-0.5774 -0.0657,-1.0801 -0.068,-1.634 0,-0.2422 8e-4,-0.4851 0.0023,-0.7273 0.0114,-0.0969 0.0262,-0.1946 0.0391,-0.2911 -0.0156,-0.0988 -0.0317,-0.1964 -0.0449,-0.2921 -0.0153,-0.2801 -0.0321,-0.5774 -0.0336,-0.8457 -0.0016,-0.3426 0.0054,-0.7207 0.0207,-1.0801 0.0062,-0.1621 0.0519,-0.2969 0.0508,-0.468 -0.0012,-0.1726 -0.0532,-0.3015 -0.054,-0.4656 -0.0023,-0.1992 0.0516,-0.3469 0.0512,-0.5547 -0.0097,-1.5078 0.0071,-2.9598 0.6914,-4.1074 0.4715,-0.784 1.3379,-1.2781 2.1258,-1.6172 0.5465,-0.2363 1.1066,-0.5066 1.7008,-0.6473 0.4398,-0.1015 0.8734,-0.1574 1.3344,-0.2375 0.3504,-0.0605 0.7144,-0.1504 1.082,-0.1894 0.3492,-0.0274 0.6984,-0.0547 1.048,-0.0801 0.7504,-0.0926 1.4844,-0.2246 2.2473,-0.3176 0.3574,-0.0172 0.7176,-0.0367 1.0766,-0.0523 0.1554,-0.0332 0.3109,-0.0676 0.4672,-0.102 0.2816,-0.0054 0.566,-0.0074 0.8453,-0.0152 0.3011,-0.0274 0.6023,-0.0547 0.9043,-0.086 0.155,-0.007 0.309,-0.0128 0.4656,-0.0156 0.1363,-0.0363 0.2727,-0.0676 0.4098,-0.0988 0.3867,-0.0586 0.7468,-0.1008 1.1339,-0.1758 0.1196,-0.039 0.2383,-0.0781 0.3586,-0.1211 0.2637,-0.0762 0.5043,-0.1394 0.7571,-0.2383 0.366,-0.1336 0.7347,-0.2664 1.1019,-0.3972 0.2676,-0.136 0.5317,-0.2676 0.8016,-0.4035 0.1414,-0.0957 0.2863,-0.1915 0.4265,-0.2872 0.2938,-0.1687 0.5829,-0.3132 0.8504,-0.5332 0.3297,-0.2675 0.5551,-0.5937 0.8442,-0.9043 0.0937,-0.1042 0.1429,-0.2421 0.2691,-0.3125 0,-0.0488 0.0164,-0.0312 0.0602,-0.0312 0,0.0508 0.1468,0.1437 0.1859,0.1914 0.0621,0.0949 0.1211,0.1887 0.1817,0.2832 0.6375,0.9316 1.5859,1.5988 2.5476,2.1121 0.1484,0.05 0.2945,0.1059 0.4449,0.1567" /><path
       inkscape:connector-curvature="0"
       id="path128"
       style="fill:#ffffff;fill-opacity:1;fill-rule:nonzero;stroke:none"
       d="m 45.6641,60.582 c 0,-0.0082 0,-0.0183 0,-0.0277 -0.0293,0 -0.0594,0 -0.0883,0 -4e-4,0.0957 -0.0031,0.1922 -0.0055,0.2879 0.0418,0.2918 0.2817,0.4246 0.4469,0.6422 0.3098,-0.2699 -0.168,-0.7032 -0.3531,-0.9024" /><path
       inkscape:connector-curvature="0"
       id="path130"
       style="fill:#ffffff;fill-opacity:1;fill-rule:nonzero;stroke:none"
       d="m 47.1777,63.0137 c 0.1231,0.1312 0.1911,0.2914 0.2985,0.4355 0.0914,0.091 0.184,0.1809 0.2777,0.2738 0.209,-0.0226 0.4055,-0.0535 0.6391,-0.0644 0,-0.0285 0,-0.0574 0,-0.0871 -0.3094,0.0031 -1.1391,-1.027 -1.3317,-1.2871 -0.0894,-0.1227 -0.1976,-0.3645 -0.3379,-0.4395 -0.0855,-0.0426 -0.1859,-0.007 -0.255,0.036 -0.1989,0.123 -0.0508,0.341 0.0066,0.4839 0.0367,0.0899 0.0453,0.1969 0.1227,0.2637 0.0808,0.0395 0.1574,0.0785 0.2382,0.1199 0.1149,0.0868 0.227,0.1754 0.3418,0.2653" /><path
       inkscape:connector-curvature="0"
       id="path132"
       style="fill:#ffffff;fill-opacity:1;fill-rule:nonzero;stroke:none"
       d="m 45.1973,62.3105 c 0.0488,0.15 0.0476,0.3137 0.1218,0.4508 0.0914,0.1785 0.3176,0.2235 0.4551,0.3516 0.1246,0.1137 0.1516,0.2703 0.2496,0.3961 0.1032,0.1336 0.2457,0.1582 0.3867,0.2199 0.1153,0 0.2333,-8e-4 0.3493,-8e-4 0,-0.1453 -0.1907,-0.2941 -0.2614,-0.4101 -0.0957,-0.1582 -0.1914,-0.3254 -0.2894,-0.4797 -0.1117,-0.1524 -0.227,-0.3067 -0.3418,-0.4598 -0.0774,-0.1195 -0.1039,-0.2558 -0.2,-0.3644 -0.0703,-0.0551 -0.1406,-0.1118 -0.2137,-0.1653 -0.0633,-0.073 -0.1277,-0.1433 -0.1918,-0.2125 -0.0648,-0.0621 -0.1301,-0.123 -0.1953,-0.184 -0.1191,-0.1441 -0.1191,-0.355 -0.2781,-0.4812 -0.1395,-0.1078 -0.3918,-0.1816 -0.5821,-0.1172 -0.0183,0 -0.0398,0 -0.0585,0 7e-4,0.0875 0.3835,0.6813 0.4707,0.757 0.0796,0.0692 0.1976,0.0739 0.2609,0.1661 0.0582,0.0863 0.0488,0.1878 0.0992,0.2765 0.059,0.1047 0.177,0.1383 0.2188,0.257" /><path
       inkscape:connector-curvature="0"
       id="path134"
       style="fill:#ffffff;fill-opacity:1;fill-rule:nonzero;stroke:none"
       d="m 42.9863,62.7219 c 0.0352,0.1441 0.1731,0.2394 0.2149,0.3836 0.0504,0.1695 -0.0114,0.3125 0.109,0.4496 0.1234,0.1418 0.8734,0.0277 1.1175,0.1566 0.1563,-8e-4 0.3086,-8e-4 0.4645,-0.0031 0,-0.0195 0,-0.0391 0,-0.0594 -0.0449,0 -0.0449,-0.0226 -0.0652,-0.0515 -0.2274,-0.3211 -0.3446,-0.6938 -0.5043,-1.0473 -0.0731,-0.1281 -0.1489,-0.2559 -0.2204,-0.3863 -0.0585,-0.1391 -0.1179,-0.2813 -0.1753,-0.4203 -0.1512,-0.2813 -0.5286,-0.7633 -0.8579,-0.8254 0,0.0093 0,0.0195 0,0.0289 -0.0503,0.0011 -0.0339,0.2672 -0.041,0.3195 -0.023,0.1285 -0.0734,0.2371 -0.0562,0.382 0.0136,0.1571 0.0972,0.2617 0.0945,0.4356 -0.0066,0.2144 -0.1316,0.4218 -0.0801,0.6375" /><path
       inkscape:connector-curvature="0"
       id="path136"
       style="fill:#ffffff;fill-opacity:1;fill-rule:nonzero;stroke:none"
       d="m 40.6684,63.6992 c 0.1074,0.1153 0.5293,0.0391 0.6964,0.0875 0.184,-0.0621 0.652,-0.0551 0.8747,-0.0637 0.0043,-0.1277 0.0101,-0.2531 0.0156,-0.382 0.0222,-0.0957 0.0445,-0.1926 0.0652,-0.289 -0.018,-0.1067 -0.0359,-0.2137 -0.0531,-0.3196 -0.011,-0.4644 -0.0699,-0.9219 -0.0938,-1.3715 0.0157,-0.2824 0.0313,-0.5644 0.0469,-0.8457 -0.0078,0 -0.0195,0 -0.0285,0 0,0.009 0,0.0184 0,0.0289 -0.3711,0.0024 -0.7973,1.136 -0.9461,1.3954 -0.084,0.1449 -0.2113,0.2375 -0.3109,0.3746 -0.209,0.2925 -0.5871,1.0453 -0.2664,1.3851" /><path
       inkscape:connector-curvature="0"
       id="path138"
       style="fill:#ffffff;fill-opacity:1;fill-rule:nonzero;stroke:none"
       d="m 38.3074,63.4766 c 0.0012,0.0074 0.0031,0.0129 0.0055,0.0195 0.0605,0.1777 0.5207,0.1812 0.6859,0.2758 0.1727,-0.0016 0.3957,0.0289 0.5367,-0.0395 0.4149,-0.2035 0.554,-0.8086 0.7204,-1.1902 0.107,-0.2469 0.2523,-0.4863 0.3707,-0.7332 0.0796,-0.1313 0.155,-0.261 0.2324,-0.3914 0.0531,-0.1313 0.0719,-0.2754 0.0765,-0.4289 0.002,-0.1082 0.0207,-0.3133 -0.0808,-0.3664 -0.0828,-0.045 -0.2078,-0.0243 -0.2879,0.0089 -0.152,0.0579 -2.2492,2.6622 -2.2606,2.7985 0,0.0078 0,0.0148 0,0.0238 0,0.007 0.0012,0.0164 0.0012,0.0231" /><path
       inkscape:connector-curvature="0"
       id="path140"
       style="fill:#ffffff;fill-opacity:1;fill-rule:nonzero;stroke:none"
       d="m 37.1641,63.752 c 0.2171,-0.0356 0.3461,-0.0985 0.5043,-0.2559 0.2316,-0.2231 0.4289,-0.4899 0.6148,-0.7508 0.0945,-0.1328 0.1488,-0.2812 0.2621,-0.4117 0.1449,-0.1555 0.2922,-0.3109 0.4367,-0.4645 0.1297,-0.1644 0.2578,-0.3261 0.3868,-0.4906 0.0472,-0.0703 0.0914,-0.1398 0.139,-0.2101 0.0922,-0.0821 0.1875,-0.1633 0.2805,-0.2442 0.1957,-0.1879 0.3738,-0.4219 0.475,-0.6605 -0.0465,0 -0.0449,-0.0504 -0.0563,-0.0864 -0.1597,0 -0.3547,0.0575 -0.4683,0.1473 -0.1875,0.1906 -0.3742,0.3828 -0.5633,0.5742 -0.1203,0.12 -0.2609,0.168 -0.3645,0.3055 -0.2004,0.2684 -0.3519,0.5887 -0.5984,0.8301 -0.1418,0.139 -0.3453,0.1652 -0.4891,0.3015 -0.0039,0.0043 -0.0086,0.0102 -0.0125,0.0137 -0.1519,0.1582 -0.2066,0.3711 -0.3355,0.5414 -0.1469,0.1942 -0.3617,0.3262 -0.5008,0.5176 -0.0051,0.0129 -0.0133,0.0266 -0.0195,0.0383 -0.0028,0.0082 -0.0039,0.0148 -0.0067,0.0219 -0.0254,0.166 0.2078,0.2316 0.3157,0.2832" /><path
       inkscape:connector-curvature="0"
       id="path142"
       style="fill:#ffffff;fill-opacity:1;fill-rule:nonzero;stroke:none"
       d="m 43.693,57.6777 c 0.084,-0.0113 0.1668,-0.0203 0.2496,-0.0308 0.2508,-0.091 0.4695,-0.4614 0.3754,-0.7274 -0.052,-0.1425 -0.2118,-0.2687 -0.3332,-0.3617 -0.084,-0.0656 -0.2075,-0.1648 -0.3282,-0.1555 -0.1695,0.0172 -0.098,0.3766 -0.0558,0.4739 0.0597,0.1332 0.2101,0.1691 0.2199,0.3347 0.0152,0.195 -0.1289,0.2829 -0.1277,0.4668" /><path
       inkscape:connector-curvature="0"
       id="path144"
       style="fill:#ffffff;fill-opacity:1;fill-rule:nonzero;stroke:none"
       d="m 44.1023,58.875 c -0.098,-0.0594 -0.2132,-0.2188 -0.3421,-0.2035 -0.179,0.0219 -0.2524,0.2543 -0.37,0.3629 -0.1289,0.1242 -0.3992,0.1855 -0.3621,0.4218 0.0129,0.0958 0.0985,0.1465 0.1797,0.177 0,0.0086 0,0.0203 0,0.0281 0.1965,-0.0371 0.3313,-0.1359 0.5074,-0.2109 0.2024,-0.0844 0.4078,-0.1316 0.6184,-0.2109 0.0437,-0.0165 0.0633,-0.0672 0.0469,-0.1153 -0.0422,-0.1246 -0.1774,-0.1867 -0.2782,-0.2492" /><path
       inkscape:connector-curvature="0"
       id="path146"
       style="fill:#ffffff;fill-opacity:1;fill-rule:nonzero;stroke:none"
       d="m 43.7227,55.2637 c -0.0391,-0.2133 -0.5247,-0.3024 -0.6915,-0.1981 -0.2476,0.1532 0.2262,0.461 0.3286,0.5414 0.1246,-0.0332 0.3945,-0.1738 0.3629,-0.3433" /><path
       inkscape:connector-curvature="0"
       id="path148"
       style="fill:#ffffff;fill-opacity:1;fill-rule:nonzero;stroke:none"
       d="m 42.452,55.4492 c -0.0821,-0.0176 -0.1258,0.0586 -0.1805,0.0942 -0.0668,0.0429 -0.1453,0.0558 -0.2039,0.1211 -0.15,0.1652 -0.1059,0.3398 -0.1145,0.5636 -0.0066,0.1153 -0.0273,0.2582 0.0157,0.3641 0.0367,0.0949 0.1281,0.1375 0.2023,0.189 0.0949,-0.0042 0.1723,-0.0101 0.2449,-0.055 0.084,-0.0532 0.6731,-0.6227 0.6848,-0.6848 0.0383,-0.2199 -0.4715,-0.5555 -0.6488,-0.5922" /><path
       inkscape:connector-curvature="0"
       id="path150"
       style="fill:#ffffff;fill-opacity:1;fill-rule:nonzero;stroke:none"
       d="m 45.8793,57.316 c -8e-4,-0.2109 -0.1094,-0.4398 -0.2953,-0.5246 -0.0012,-0.0449 -0.1028,0.0188 -0.1469,0.0313 8e-4,0.2121 0.2758,0.3652 0.4149,0.4933 0.0078,0 0.0175,0 0.0273,0" /><path
       inkscape:connector-curvature="0"
       id="path152"
       style="fill:#ffffff;fill-opacity:1;fill-rule:nonzero;stroke:none"
       d="m 45.3305,57.6918 c -0.0723,-0.052 -0.1403,-0.1141 -0.2375,-0.1133 -0.102,0.0027 -0.1442,0.0668 -0.175,0.1512 -0.0239,0.0738 -0.0153,1.0164 0.0101,1.0984 0.0321,0.1012 0.1879,0.1875 0.2594,0.2696 0.2211,-0.068 0.2086,-0.2016 0.2844,-0.4 0.1375,-0.3653 0.2343,-0.727 -0.1414,-1.0059" /><path
       inkscape:connector-curvature="0"
       id="path154"
       style="fill:#ffffff;fill-opacity:1;fill-rule:nonzero;stroke:none"
       d="m 44.9688,56.007 c 0.0269,0 0.0171,-0.0078 -0.0016,-0.0289 0,-0.134 -0.3781,-0.3711 -0.4961,-0.2558 -0.166,0.1601 0.0391,0.3285 0.1461,0.4336 0.1555,-0.0118 0.2691,-0.02 0.3516,-0.1489" /><path
       inkscape:connector-curvature="0"
       id="path156"
       style="fill:#ffffff;fill-opacity:1;fill-rule:nonzero;stroke:none"
       d="m 42.2996,59.0852 c 0.1047,-0.0106 0.2055,-0.0231 0.3082,-0.0332 0.182,-0.0602 0.7629,-0.5293 0.7004,-0.7598 -0.0539,-0.2055 -0.2477,-0.325 -0.3961,-0.4738 -0.1539,-0.15 -0.3394,-0.3274 -0.5605,-0.3536 -0.2188,-0.0269 -0.5309,0.9473 -0.4903,1.1204 0.0203,0.0769 0.3629,0.4269 0.4371,0.4699 0,0.0105 0,0.0195 0.0012,0.0301" /><path
       inkscape:connector-curvature="0"
       id="path158"
       style="fill:#ffffff;fill-opacity:1;fill-rule:nonzero;stroke:none"
       d="m 41.6215,56.7191 c -0.1137,-0.0968 -0.2621,-0.2675 -0.4188,-0.2777 -0.1211,-0.0094 -0.1797,0.0774 -0.2586,0.1441 -0.1918,0.1668 -0.3304,0.5094 -0.2648,0.7813 0.0449,0.0828 0.0859,0.1644 0.1309,0.2477 0.0793,0.2351 0.046,0.2765 0.2296,0.4574 0.2508,-0.1172 0.9719,-0.65 0.8989,-0.9899 -0.0317,-0.1414 -0.2145,-0.2718 -0.3172,-0.3629" /><path
       inkscape:connector-curvature="0"
       id="path160"
       style="fill:#ffffff;fill-opacity:1;fill-rule:nonzero;stroke:none"
       d="m 41.7527,55.1207 c -0.0093,0 -0.0179,0 -0.0285,0 0,-0.0508 -0.107,-0.0195 -0.1437,-0.0102 -0.4403,0.093 -0.916,0.2059 -0.5524,0.7446 0.0703,-0.011 0.1317,-0.0117 0.1836,-0.0559 0.1028,-0.0769 0.1336,-0.1914 0.2082,-0.2855 0.1117,-0.143 0.2809,-0.2145 0.3328,-0.393" /><path
       inkscape:connector-curvature="0"
       id="path162"
       style="fill:#ffffff;fill-opacity:1;fill-rule:nonzero;stroke:none"
       d="m 39.7336,58.8359 c 8e-4,0 0.2113,0.2551 0.2914,0.2914 0,0.0094 0,0.0196 0,0.0289 0.3668,-0.2382 0.6652,-0.6652 0.2855,-1.0523 -0.0757,-0.0754 -0.1976,-0.1797 -0.3007,-0.1957 -0.3414,-0.0508 -0.1977,0.3676 -0.2024,0.5473 -0.0027,0.1363 -0.0433,0.2609 -0.0738,0.3804" /><path
       inkscape:connector-curvature="0"
       id="path164"
       style="fill:#ffffff;fill-opacity:1;fill-rule:nonzero;stroke:none"
       d="m 40.4062,59.3867 c 0,0.0289 0,0.059 0,0.0863 0.0586,0.0165 0.1176,0.034 0.1766,0.0473 0.3652,0.0535 0.5992,0.1086 0.9035,0.2699 0.0949,-0.0265 0.2446,-0.0265 0.3032,-0.1207 0.1648,-0.2558 -0.6043,-0.7793 -0.8293,-0.7562 -0.2497,0.0285 -0.3801,0.3262 -0.554,0.4734" /><path
       inkscape:connector-curvature="0"
       id="path166"
       style="fill:#ffffff;fill-opacity:1;fill-rule:nonzero;stroke:none"
       d="m 39.9547,56.968 c 0.0547,-0.0149 0.1094,-0.0332 0.1641,-0.0469 0.1402,-0.0848 0.6492,-0.5711 0.6644,-0.7219 0.0164,-0.1637 -0.4141,-0.4652 -0.5512,-0.4957 -0.1172,-0.0226 -0.1484,0.0949 -0.1836,0.1789 -0.1351,0.3344 -0.2332,0.7004 -0.0937,1.0856" /><path
       inkscape:connector-curvature="0"
       id="path168"
       style="fill:#ffffff;fill-opacity:1;fill-rule:nonzero;stroke:none"
       d="m 39.3594,57.2758 c -0.2836,-0.0703 -0.2231,0.4793 -0.2149,0.6601 0.2078,-0.0711 0.6336,-0.5539 0.2149,-0.6601" /><path
       inkscape:connector-curvature="0"
       id="path170"
       style="fill:#ffffff;fill-opacity:1;fill-rule:nonzero;stroke:none"
       d="m 42.968,26.9375 c 0,0.082 0.6328,1.0039 0.7261,1.1152 0.0481,0.0586 0.1196,0.1055 0.1844,0.1328 0,0.0079 0,0.0196 0,0.0313 0.1453,-8e-4 0.2926,-0.0039 0.4395,-0.0039 -0.0032,-0.1797 -0.6942,-1.1973 -0.8727,-1.2734 -0.1273,-0.0575 -0.3004,-0.0293 -0.4504,-0.0333 0,0.0098 0,0.0196 0,0.0313 -0.0086,0 -0.0191,0 -0.0269,0" /><path
       inkscape:connector-curvature="0"
       id="path172"
       style="fill:#ffffff;fill-opacity:1;fill-rule:nonzero;stroke:none"
       d="m 38.5195,27.0234 c -0.1617,-0.0683 -0.4082,-0.0242 -0.5984,-0.0293 0.0023,0.2629 1.0707,1.0313 1.2891,1.2469 0.1457,0 0.2918,0 0.4386,0 -8e-4,-0.2156 -0.9183,-1.1265 -1.1293,-1.2176" /><path
       inkscape:connector-curvature="0"
       id="path174"
       style="fill:#ffffff;fill-opacity:1;fill-rule:nonzero;stroke:none"
       d="m 46.4781,21.2668 c -0.1867,-0.082 -0.4414,0.0801 -0.5449,0.2156 -0.1125,0.1516 -0.1516,0.3281 -0.2105,0.5039 -0.0926,0.2785 -0.1836,0.5672 -0.2926,0.8418 -0.0715,0.1848 -0.2117,0.4317 -0.1856,0.6496 0.0172,0.1375 0.1465,0.1914 0.2414,0.2618 0.0844,-0.0207 0.1442,-0.0461 0.1938,-0.1211 0.0558,-0.086 0.0754,-0.1817 0.1094,-0.2817 0.0921,-0.2711 0.1816,-0.5359 0.2593,-0.8172 0.0903,-0.3172 0.227,-0.6425 0.3621,-0.9394 0.0215,-0.0508 0.1657,-0.2696 0.0676,-0.3133" /><path
       inkscape:connector-curvature="0"
       id="path176"
       style="fill:#ffffff;fill-opacity:1;fill-rule:nonzero;stroke:none"
       d="m 45.498,28.252 c 0.1399,-0.1954 0.9731,-1.118 0.9254,-1.293 -0.0136,-0.043 -0.0656,-0.0488 -0.105,-0.0574 -0.252,-0.0032 -0.5036,-0.0071 -0.7559,-0.009 -0.4465,0.0019 -0.8941,0.0058 -1.3406,0.0078 0,0.0098 0,0.0176 0.0011,0.0293 -0.0113,0 -0.0222,0 -0.0304,0 0,0.0976 0.0785,0.1855 0.1183,0.2629 0.1403,0.2617 0.6887,1.0047 0.6524,1.2754 -0.0102,0.0898 -0.077,0.1582 -0.1586,0.1855 -0.352,0.1207 -0.7742,0.0176 -1.1567,0.0313 -0.2027,0.0105 -0.6668,0.1113 -0.8453,0.0312 -0.3828,0.002 -1.7172,0.1902 -1.8742,-0.1465 -0.039,-0.0812 0.0149,-0.1742 0.0481,-0.2433 0.1558,-0.3067 0.3957,-0.5899 0.6027,-0.87 0.1125,-0.173 0.2254,-0.3449 0.3379,-0.5128 -0.0012,-0.0118 -0.0012,-0.0196 -0.0012,-0.0293 -0.0281,-0.0125 -0.059,-0.0196 -0.0875,-0.0321 -0.8207,0.0059 -1.6355,0.0391 -2.4496,0.0438 0,0.0195 0,0.039 0,0.0586 0.0273,0 1.1938,1.4082 1.3219,1.5683 0,0.0383 -0.009,0.0383 -0.0297,0.0598 -0.1445,0.0156 -0.2934,0.0379 -0.4371,0.0547 -0.2434,0.0113 -0.4856,0.0234 -0.7297,0.0371 -0.6969,0.0164 -1.4324,-0.0258 -2.0988,0.041 7e-4,0.082 0.9949,1.041 1.1281,1.1785 0.8453,0.8879 1.7258,1.7414 2.6086,2.6094 0.3043,0.3137 0.6062,0.623 0.9098,0.9316 0.098,0.095 0.1875,0.1985 0.3109,0.2403 0,0.0176 0,0.0402 0.0016,0.0597 0.196,-0.1007 0.3675,-0.3 0.5281,-0.464 0.2636,-0.2703 0.5273,-0.5438 0.7883,-0.8145 0.1675,-0.1543 0.3328,-0.3066 0.5,-0.4629 0.75,-0.7824 1.5488,-1.5203 2.314,-2.2957 0.3149,-0.3175 0.727,-0.6418 0.9731,-1.0097 -0.0575,-0.0078 -0.1164,-0.0176 -0.175,-0.0274 -0.2403,0 -0.4856,0.0047 -0.7289,0.0059 -0.0911,0.0019 -0.2063,0.0293 -0.2891,0 -0.3336,0.0019 -0.727,0.0445 -0.9941,-0.0805 -0.0028,-0.1277 0.1488,-0.2652 0.2171,-0.364" /><path
       inkscape:connector-curvature="0"
       id="path178"
       style="fill:#ffffff;fill-opacity:1;fill-rule:nonzero;stroke:none"
       d="m 37.2395,24.9434 c 0.1179,0.2031 2.3664,0.0293 2.7406,0.0273 0.5804,-0.0039 1.0961,0.0781 1.664,0.0773 0.7582,-0.005 1.5625,-0.0617 2.3332,-0.0644 0.3915,-0.0031 0.8219,0.0105 1.2258,0.0223 0.9196,0.0253 1.8735,-0.0176 2.7696,-0.0223 0.0015,0.0086 0.0015,0.0195 0.0015,0.0281 0.0473,0 0.0516,0.2578 0.0516,0.3211 0.0031,0.5832 0.014,1.1926 0.0187,1.8078 0.002,0.4219 -0.0117,0.8489 0.0625,1.2246 0.4766,-0.25 0.4188,-0.8476 0.4344,-1.3742 0.007,-0.323 0.0293,-0.6988 0.0188,-1.0476 -0.0188,-0.1883 -0.0364,-0.3711 -0.054,-0.5555 -0.0156,-0.2785 0.0661,-0.5918 -0.039,-0.8449 0,-0.0196 0,-0.0391 0,-0.0586 -0.0086,0 -0.0195,0 -0.0293,0 0,0.0539 -0.1805,0.0304 -0.2328,0.0304 -0.4617,0.0028 -0.8965,-0.0238 -1.3723,-0.0195 -0.2058,0 -0.4945,0.043 -0.6707,-0.0273 -0.1742,0 -0.4043,0.0359 -0.5547,-0.0254 -0.5351,0.0019 -1.0437,0.0058 -1.5754,0.0418 -0.2347,0.0168 -0.5574,0.1242 -0.7863,0.0304 -0.391,0 -0.7762,0.0313 -1.166,0.0204 -0.0863,-0.0047 -0.1934,0.0226 -0.2637,-0.0118 -0.2199,0 -0.7105,0.0852 -0.8758,0.0032 -0.1293,0 -0.2738,0.0164 -0.3797,-0.0274 -0.3687,0.0047 -0.739,0.0078 -1.1074,0.0117 -0.2203,0.0125 -0.4668,0.0196 -0.7004,0.0321 -0.0781,0 -0.1566,-0.0028 -0.2347,-0.0028 -0.086,-0.0097 -0.1727,-0.0168 -0.2621,-0.0293 -0.4317,0.0039 -0.777,-0.0996 -0.9856,0.2703 -0.0183,0.0344 -0.0574,0.1172 -0.0308,0.1622" /><path
       inkscape:connector-curvature="0"
       id="path180"
       style="fill:#ffffff;fill-opacity:1;fill-rule:nonzero;stroke:none"
       d="m 48.3617,17.6582 c -0.0863,-0.1211 -0.3484,-0.1543 -0.4894,-0.1719 0.0039,0.7278 -0.0371,1.5071 -0.009,2.25 0.0082,0.2121 -0.0297,0.4602 0.014,0.6614 0.0145,0.0703 0.052,0.1023 0.0997,0.1511 0.15,-0.0027 0.2902,0 0.4078,-0.0613 0.0433,0 0.0515,-0.3125 0.0422,-0.377 -0.0227,-0.1593 0.0125,-0.3195 0.0125,-0.498 -0.0016,-0.2609 -0.0434,-0.4941 -0.0297,-0.757 0.0172,-0.2696 0.0964,-0.9922 -0.0481,-1.1973" /><path
       inkscape:connector-curvature="0"
       id="path182"
       style="fill:#ffffff;fill-opacity:1;fill-rule:nonzero;stroke:none"
       d="m 57.1262,18.6027 c -0.0973,0 -0.2164,-0.0148 -0.2918,-0.0597 -0.1449,0.0019 -0.4395,-0.0742 -0.5551,-0.1414 -0.2656,0 -0.4926,-0.1094 -0.7332,-0.1555 -0.1637,-0.032 -0.3395,-0.0633 -0.4941,-0.0906 -0.1157,-0.0157 -0.2508,-0.0117 -0.3508,-0.0664 -0.0664,-0.0079 -0.1348,-0.0176 -0.2035,-0.0274 -0.0676,-0.0082 -0.1364,-0.0195 -0.2051,-0.0273 -0.1742,0.0019 -0.3906,0.0273 -0.5238,-0.0559 -0.0692,-0.0086 -0.1364,-0.0195 -0.2063,-0.0262 -0.2828,0 -0.6262,0.043 -0.8453,-0.0863 -0.1055,0 -0.2309,0.011 -0.3207,-0.025 -0.1344,0 -0.2356,0.0301 -0.3492,0.0606 -0.0012,-0.0606 -0.3504,-0.1106 -0.409,-0.1457 -0.1957,0.0031 -0.4445,0.0371 -0.6129,-0.0223 -0.0676,-0.0129 -0.1359,-0.0195 -0.2031,-0.0305 -0.1957,0.002 -0.4293,0.0227 -0.586,-0.0554 -0.1293,0.0027 -0.275,-0.0051 -0.3789,-0.0559 -0.1898,0 -0.6738,-0.0488 -0.7875,0.043 -0.189,0.1496 -0.084,2.005 -0.0765,2.3527 -0.0055,0.1777 -0.0161,0.3516 -0.0211,0.5273 -0.0075,0.1844 0.0547,0.8047 -0.2621,0.7012 -0.1797,0 -0.5637,0.043 -0.6981,-0.0254 -0.1922,0.002 -0.7035,-0.0371 -0.8156,0.0664 -0.2,0.1895 -0.3102,0.8828 -0.4129,1.161 -0.1586,0.4062 -0.4148,0.8156 -0.4695,1.2636 -0.0071,0.0461 -0.0192,0.125 0.0125,0.1602 0.0832,0.0996 0.4703,0.082 0.6187,0.082 0.3438,-0.0027 1.907,-0.0078 2.0348,0.211 0.0789,0.1457 0.0476,0.6015 0.034,0.7832 0.0109,0.2812 0.0234,0.5644 0.0347,0.8476 0.0153,0.4348 -0.084,0.9414 0.0465,1.3399 0.9942,-1.0723 2.1211,-2.0547 3.1445,-3.1231 0.0965,-0.1211 0.1899,-0.2383 0.2856,-0.3582 0.2555,-0.2558 0.541,-0.4855 0.8043,-0.7433 0.7062,-0.6942 1.3617,-1.4461 2.0527,-2.1426 0.5293,-0.5352 1.0828,-1.0606 1.6133,-1.5965 0.0988,-0.0977 0.2688,-0.2109 0.3152,-0.3449 0.0391,-0.1016 -0.1324,-0.1543 -0.1847,-0.1942" /><path
       inkscape:connector-curvature="0"
       id="path184"
       style="fill:#ffffff;fill-opacity:1;fill-rule:nonzero;stroke:none"
       d="m 55.1996,46.3062 c 0.1602,0.1891 0.3207,0.379 0.4836,0.5688 0.1883,0.1973 0.4066,0.3508 0.5988,0.5336 0.2563,0.2617 0.509,0.5234 0.7649,0.784 0.2883,0.2742 0.5765,0.5508 0.8636,0.8285 0.5645,0.5844 1.1254,1.1676 1.6891,1.7527 0.8652,0.8274 1.7473,1.6434 2.5434,2.5321 0.2039,0.2304 0.507,0.4203 0.6656,0.6761 0.1426,-0.1968 0.0406,-0.7168 0.0566,-0.991 0.0371,-0.6441 0.0059,-1.3433 0.0133,-2.0133 0.0156,-0.3398 0.0297,-0.6797 0.0453,-1.0187 -0.0199,-0.3516 -0.0351,-0.7016 -0.055,-1.0508 0.0156,-0.2039 0.0296,-0.4105 0.0472,-0.6133 -0.0058,-0.0992 -0.0121,-0.1933 -0.0156,-0.2914 0.0117,-0.1176 0.0234,-0.234 0.0332,-0.3527 -0.0117,-0.0965 -0.0254,-0.1914 -0.041,-0.2895 -0.0449,-0.5379 -0.0492,-1.0785 -0.041,-1.6351 0.0254,-0.2797 0.0507,-0.5637 0.0761,-0.8457 -0.0156,-0.1559 -0.0336,-0.3086 -0.0527,-0.4653 -0.002,-0.3496 -0.0062,-0.7007 -0.0098,-1.0515 -0.0078,-0.1176 -0.0136,-0.2313 -0.0195,-0.3489 0.0059,-0.2246 0.0605,-0.455 0.0566,-0.671 -0.0082,-0.3086 -0.0824,-0.6348 -0.0785,-0.9629 0.0278,-0.3993 0.0532,-0.7981 0.0801,-1.1961 -0.0172,-0.2442 -0.0367,-0.4856 -0.0562,-0.7286 0.0136,-0.0902 0.0211,-0.1769 0.0332,-0.2667 0.0058,-0.261 -0.0196,-0.5274 -0.0293,-0.7821 0.0117,-0.1855 0.0269,-0.3722 0.039,-0.5578 0,-0.1426 -0.0371,-0.2754 -0.0472,-0.407 -0.0196,-0.2793 -0.0016,-0.5606 0.0316,-0.8196 0.0508,-0.4031 0.0352,-0.9304 -0.0062,-1.3386 -0.0133,-0.0969 -0.0293,-0.1946 -0.045,-0.2934 -0.0136,-0.2449 0.0492,-0.4617 0.045,-0.7 -0.0172,-0.1367 -0.0352,-0.2695 -0.0524,-0.407 0.0059,-0.1445 0.0133,-0.2902 0.0195,-0.4367 -0.0078,-0.1953 -0.0195,-0.3895 -0.0293,-0.5848 -0.0023,-0.184 0.1133,-1.2324 -0.0609,-1.2324 -0.1141,8e-4 -1.0437,1.0176 -1.2004,1.1726 -1.1613,1.177 -2.3406,2.3723 -3.4945,3.5411 -0.1848,0.1855 -0.3406,0.4042 -0.5211,0.58 -0.1641,0.1574 -0.3285,0.3172 -0.4949,0.4739 -0.0817,0.0984 -0.1696,0.2 -0.2528,0.2976 -1.1179,1.0996 -2.25,2.2149 -3.3695,3.3117 -0.2,0.1961 -1.6543,1.6528 -1.659,1.7492 0.0063,0.027 0.0098,0.0536 0.0125,0.0797 0.1129,0.2754 0.5699,0.5821 0.7977,0.7989 0.2472,0.2375 0.4297,0.5011 0.6625,0.7363 0.2086,0.2152 0.4375,0.423 0.6488,0.6348 0.0785,0.066 0.157,0.1328 0.2371,0.2007 0.1824,0.1864 0.3629,0.3754 0.5449,0.5625 0.1813,0.1797 0.3606,0.3571 0.5426,0.5371" /><path
       inkscape:connector-curvature="0"
       id="path186"
       style="fill:#ffffff;fill-opacity:1;fill-rule:nonzero;stroke:none"
       d="m 48.4926,62.557 c 0.0953,0.0703 0.1976,0.0922 0.2828,0.1848 0.0598,0.0898 0.1184,0.1781 0.1773,0.2672 0.1567,0.2293 0.3192,0.4226 0.5106,0.6234 0.0679,0.0621 0.1379,0.1254 0.2066,0.1879 0.1266,0.068 0.3461,0.0356 0.5035,0.0344 0.3332,-0.002 0.6625,0.0141 0.9629,0.0453 0.1485,0.016 0.2836,0.0066 0.409,0.0629 0.2242,-0.0043 0.4457,-0.0078 0.6699,-0.0125 0.2516,-0.0289 0.5192,-0.0899 0.7875,-0.091 0.2379,-0.0024 0.4426,0.0863 0.6715,0.0804 0.0778,-0.0148 0.1563,-0.0253 0.2344,-0.039 0.2793,-0.032 0.6324,-0.032 0.875,0.0426 0,-0.0079 0,-0.0184 0,-0.0274 0.0098,0 0.0176,0 0.0305,0 0,-0.0394 0.0078,-0.0301 -0.0305,-0.0301 -0.0043,-0.0164 -0.0109,-0.03 -0.0145,-0.0476 -0.2836,-0.3754 -0.6976,-0.6625 -1.0273,-0.9805 -0.6246,-0.6105 -1.2477,-1.225 -1.8695,-1.8367 C 51.7309,60.877 51.5664,60.766 51.4277,60.6223 50.866,60.0492 50.3609,59.4281 49.7859,58.8785 49.5785,58.677 49.3691,58.475 49.1641,58.2758 49.0465,58.177 48.9324,58.0793 48.8188,57.9785 48.6887,57.8254 48.5602,57.6719 48.432,57.5199 c -0.3476,-0.3676 -0.7156,-0.7234 -1.0879,-1.0715 -0.1746,-0.2043 -0.3484,-0.4093 -0.5214,-0.6156 -0.3868,-0.3734 -0.7719,-0.7453 -1.1555,-1.1199 -0.6578,-0.6445 -1.3055,-1.309 -1.9656,-1.9453 -0.2192,-0.2074 -0.411,-0.4656 -0.652,-0.6285 0,-0.011 0,-0.0196 0,-0.0305 -0.0101,0 -0.0199,0 -0.0297,0 0,0.009 0,0.0195 0,0.0305 -0.0094,0 -0.0187,0 -0.0304,0 0.0093,0.0867 0.0183,0.1746 0.0273,0.2617 0.0035,0.2019 -0.0344,0.4058 -0.0141,0.6133 0.0246,0.107 0.0508,0.2129 0.0735,0.3214 0.014,0.2008 -0.0574,0.3668 0.0367,0.5395 0.0586,0.1086 0.1933,0.152 0.2793,0.2348 0.1687,0.1675 0.266,0.3804 0.4707,0.5152 0.2125,0.1422 0.4793,0.1836 0.7094,0.2941 0.1457,0.075 0.2621,0.1993 0.4004,0.2844 0.3109,0.2027 0.6703,0.377 0.9039,0.6985 0.0625,0.1277 0.1269,0.2539 0.191,0.3812 0.0769,0.1109 0.1558,0.2227 0.2328,0.3336 0.0605,0.152 0.0527,0.3238 0.0965,0.4848 0.0601,0.2191 0.1699,0.4183 0.1761,0.6769 -0.0277,0.2231 -0.055,0.4457 -0.0824,0.6703 -0.0301,0.2879 -0.1918,0.5473 -0.3636,0.7653 -0.0735,0.091 -0.1625,0.1808 -0.2075,0.2894 -0.0566,0 0,0.0746 0.0157,0.107 0.0484,0.0657 0.0937,0.1313 0.1394,0.1957 0.2008,0.3024 0.4063,0.6286 0.7063,0.8497 0.1511,0.1129 0.1718,0.2742 0.2879,0.4125 0.1382,0.1613 0.3433,0.2476 0.4863,0.4171 0.0738,0.0981 0.1484,0.1981 0.2222,0.2938 0.0606,0.1129 0.0887,0.2305 0.1813,0.3273 0.0937,0.0989 0.1984,0.1454 0.2988,0.2286 0.0785,0.0734 0.1567,0.1484 0.2352,0.2218" /><path
       inkscape:connector-curvature="0"
       id="path188"
       style="fill:#ffffff;fill-opacity:1;fill-rule:nonzero;stroke:none"
       d="m 31.5918,63.841 c 0.2871,-0.0027 0.6449,-0.0441 0.9043,0.0262 0.2086,-0.0426 0.4441,-0.0297 0.6699,-0.0344 0.1774,-0.0113 0.3508,-0.0219 0.527,-0.0308 0.2425,0 0.484,0 0.7265,7e-4 0.1086,-0.0203 0.2153,-0.0379 0.3207,-0.0574 0.2227,-0.0012 0.4848,0.1488 0.7024,0.075 0.2578,-0.0887 0.4797,-0.3777 0.6765,-0.5777 0.3145,-0.3098 0.6258,-0.6184 0.9371,-0.9285 0.2071,-0.2239 0.4032,-0.4797 0.6137,-0.6996 0.261,-0.2696 0.5469,-0.4629 0.809,-0.7375 0.1566,-0.1625 0.2508,-0.3434 0.4035,-0.5024 0.0856,-0.068 0.1746,-0.1371 0.2625,-0.2043 0.168,-0.1406 0.3235,-0.3281 0.4172,-0.516 -0.0933,0 -0.2301,-0.2008 -0.2926,-0.2641 -0.2414,-0.2535 -0.4304,-0.5093 -0.5105,-0.8433 -0.0207,-0.1348 -0.0406,-0.2684 -0.0613,-0.4031 -0.0438,-0.2161 -0.0997,-0.427 -0.0743,-0.67 0.0387,-0.1562 0.0754,-0.3113 0.1149,-0.4664 0.0676,-0.1601 0.1328,-0.3203 0.2004,-0.4808 0.0824,-0.1774 0.1215,-0.3641 0.2422,-0.5301 0.0906,-0.1199 0.2453,-0.1649 0.3586,-0.25 0.1136,-0.082 0.1597,-0.2199 0.2742,-0.3055 0.1086,-0.0527 0.2168,-0.1027 0.3246,-0.1519 0.1515,-0.1016 0.3004,-0.2016 0.45,-0.3008 0.1992,-0.127 0.4429,-0.2133 0.6183,-0.3805 0.1153,-0.1574 0.2286,-0.3144 0.343,-0.4726 0.1043,-0.1278 0.2734,-0.2176 0.3488,-0.3684 0.0496,-0.1035 0.0887,-0.2457 0.095,-0.3688 0.0054,-0.1144 -0.0243,-0.2421 0.0027,-0.3515 0.0609,-0.2582 0.1648,-0.6262 0.1195,-0.9024 -0.2347,8e-4 -0.723,0.5914 -0.8992,0.7641 -0.3617,0.3391 -0.7262,0.6762 -1.0859,1.0152 -0.2645,0.2797 -0.5266,0.561 -0.7907,0.8422 -0.5207,0.543 -1.0832,1.0489 -1.5964,1.5836 -0.2743,0.2871 -0.5559,0.5692 -0.8332,0.8582 -0.1137,0.1348 -0.234,0.2711 -0.35,0.4059 -0.954,0.9336 -1.8985,1.8597 -2.8457,2.7875 -0.2512,0.2734 -0.5036,0.5465 -0.7571,0.8183 -0.5437,0.5508 -1.0472,1.0957 -1.616,1.6204 -0.2793,0.2605 -0.875,0.6156 -0.9758,0.9808 0.4035,-0.0023 0.8125,0.0231 1.2262,0.0207" /><path
       inkscape:connector-curvature="0"
       id="path190"
       style="fill:#ffffff;fill-opacity:1;fill-rule:nonzero;stroke:none"
       d="m 25.4391,35.0957 c -0.427,-0.3984 -0.7731,-0.8602 -1.1895,-1.259 -0.6152,-0.6023 -1.2305,-1.2019 -1.8434,-1.8043 -0.2042,-0.209 -0.4992,-0.4269 -0.6511,-0.6613 -0.0086,0 -0.0184,0 -0.0301,0 -8e-4,-0.0574 -0.0668,0.1055 -0.0734,0.1492 -0.0024,0.2113 -0.0067,0.427 -0.009,0.6399 0.0117,0.6418 0.0254,1.2843 0.0406,1.9238 0.0027,0.532 0.0098,1.0402 0.0043,1.5449 -0.0055,0.177 -0.0141,0.3527 -0.0211,0.5266 0.0109,0.4793 0.0391,1.0097 0.034,1.5164 -0.007,0.2148 -0.0145,0.4277 -0.0227,0.6426 0.0059,0.3097 0.0309,0.6339 0.0317,0.9621 -0.0078,0.1961 -0.0137,0.3886 -0.0235,0.5839 0.0039,0.5547 0.0043,1.1075 0.0075,1.6622 -0.0063,0.166 -0.0141,0.3308 -0.0231,0.4949 0.0195,0.2051 0.0391,0.4117 0.0567,0.6133 0.0152,0.4609 -0.0313,0.8957 -0.0141,1.3429 0.0168,0.3387 0.0348,0.6797 0.0504,1.0196 -0.0082,0.7316 -0.0422,1.457 -0.0235,2.1882 0.0223,0.3493 0.043,0.7008 0.0664,1.05 -0.0124,0.1856 -0.0265,0.37 -0.0421,0.5547 -0.0063,0.743 0.0195,1.5012 0.0117,2.2157 -0.0082,0.1566 -0.0156,0.3125 -0.0235,0.4679 0.0118,0.1836 0.0235,0.3692 0.0364,0.5531 0.0023,0.2168 -0.0407,0.4219 -0.0266,0.6442 0.0152,0.1258 0.0324,0.2504 0.0469,0.3769 -0.0047,0.3469 -0.0164,0.7032 -0.0145,1.0512 0.2985,-0.1098 0.5367,-0.4394 0.7653,-0.6625 0.5054,-0.4902 1.0078,-0.9812 1.5093,-1.4699 0.1743,-0.1863 0.3473,-0.3711 0.5207,-0.5551 0.379,-0.3586 0.7579,-0.7238 1.0997,-1.1168 0.1152,-0.1336 0.223,-0.2711 0.3585,-0.4 0.2481,-0.2351 0.5145,-0.4515 0.7555,-0.7055 0.1051,-0.1101 0.1574,-0.2312 0.2711,-0.3382 0.5824,-0.5532 1.1984,-1.0707 1.7867,-1.6301 0.5606,-0.577 1.1199,-1.1555 1.6778,-1.7344 0.355,-0.3363 2.5949,-2.4383 2.4621,-2.7621 -0.0407,-0.0609 -0.0801,-0.1219 -0.1239,-0.184 -0.2621,-0.45 -0.8761,-0.9555 -1.2781,-1.3199 C 31.459,41.093 31.373,40.9238 31.2387,40.7871 30.9082,40.4504 30.5801,40.1309 30.2488,39.7969 29.791,39.343 29.3254,38.8906 28.8633,38.4387 28.5602,38.1301 28.2574,37.8203 27.9555,37.5109 27.8777,37.4211 27.802,37.3328 27.7246,37.2461 26.9609,36.5371 26.202,35.8027 25.4391,35.0957" /><path
       inkscape:connector-curvature="0"
       id="path192"
       style="fill:#ffffff;fill-opacity:1;fill-rule:nonzero;stroke:none"
       d="m 37.8297,21.1887 c -0.252,0 -1.0926,0.0574 -1.2406,-0.0434 -0.0575,-0.0387 -0.0633,-0.1141 -0.0672,-0.1812 -0.0059,-0.7793 -0.0125,-1.5586 -0.0184,-2.3352 0.0043,-0.3367 0.0438,-0.8281 -0.0265,-1.1621 -0.0168,-0.0828 -0.0633,-0.1551 -0.1274,-0.207 0,-0.0106 0,-0.0196 0,-0.0321 -0.2398,0.0039 -0.4516,0.1051 -0.6738,0.1414 -0.2125,0.0313 -0.4336,-0.0195 -0.6383,-0.0195 -0.1551,0.0227 -0.3113,0.043 -0.4684,0.0625 -0.3,0.0274 -0.6027,0.0559 -0.9043,0.0859 -0.1168,0.0118 -0.3027,0.0274 -0.4066,-0.0183 -0.6969,0.0047 -1.3437,0.1433 -2.0125,0.2078 -0.3102,0.0332 -0.6113,0.0293 -0.8988,0.0801 -0.2449,0.0422 -0.4895,0.0812 -0.7324,0.1211 -0.1051,0.0246 -0.2153,0.05 -0.3223,0.0722 -0.1535,0.009 -0.3074,0.0149 -0.4633,0.0246 -0.35,0.0625 -0.7019,0.125 -1.0535,0.1883 -0.2692,0.0364 -0.6106,0.0403 -0.8414,0.1574 -0.0098,0 -0.0195,0 -0.0313,0 0,0.0196 0,0.0391 0,0.0586 0.045,0 0.0215,-0.0109 0.0426,0.0223 0.1567,0.2492 0.457,0.5137 0.6801,0.718 0.2047,0.2039 0.4074,0.407 0.6109,0.614 0.3121,0.3086 0.6492,0.5879 0.9672,0.9004 0.157,0.1535 0.3137,0.3078 0.4699,0.459 0.1289,0.1438 0.2586,0.2891 0.3875,0.4317 0.8024,0.7683 1.6223,1.5168 2.4071,2.3183 0.4836,0.4934 0.9308,1.0125 1.4269,1.4895 0.6903,0.6629 1.3711,1.3113 2.0266,2.0019 0.1898,0.1953 0.3832,0.3926 0.575,0.5906 0.1246,-0.1765 0.0488,-0.8496 0.0293,-1.08 -0.032,-0.37 -0.0391,-0.7442 -0.0418,-1.1375 -0.0012,-0.2481 -0.0324,-0.5071 0.0465,-0.7207 0.0715,-0.2082 0.2183,-0.3887 0.3441,-0.5723 0.068,-0.1086 0.1043,-0.2465 0.2289,-0.3164 0.1777,-0.0977 0.7403,-0.1223 0.9742,-0.1125 0.4121,0.0156 0.8399,0.0449 1.2856,0.043 -0.002,-0.2832 -0.1824,-0.6317 -0.2789,-0.8829 -0.175,-0.4433 -0.3508,-0.8835 -0.5164,-1.332 -0.0641,-0.166 -0.1203,-0.3906 -0.2395,-0.5301 -0.0883,-0.0949 -0.2097,-0.0312 -0.323,-0.0761 -0.0598,-0.011 -0.1172,-0.0188 -0.1758,-0.0293" /><path
       inkscape:connector-curvature="0"
       id="path194"
       style="fill:#ffffff;fill-opacity:1;fill-rule:nonzero;stroke:none"
       d="m 39.8145,15.9953 c -0.3028,0.0313 -0.5821,0.2469 -0.8536,0.3594 -0.216,0.0906 -0.4636,0.1297 -0.6613,0.2519 -0.0086,0 -0.0199,0 -0.0281,0 0,0.0118 0,0.0184 0,0.0282 0.0097,0 0.0195,0 0.0293,0 0,0.0422 -0.0098,0.0293 0.0285,0.0293 0.4269,-8e-4 2.4426,-0.0774 2.6258,0.1027 0.0914,0.0898 0.0887,0.4609 0.0902,0.6113 0.0043,0.9414 -0.1055,2.2059 0.7598,2.6875 0.1258,0.0711 0.259,0.086 0.3945,0.1375 0.2399,0 0.8309,-0.0886 0.8016,-0.409 -0.0063,-0.0773 -0.0957,-0.0773 -0.1649,-0.0871 -0.5711,-0.0672 -0.6824,-0.3789 -0.9187,-0.823 -0.1926,-0.3606 -0.1614,-0.9785 -0.1715,-1.4524 -0.0113,-0.4628 -0.0336,-0.9023 -0.0367,-1.3699 -0.0098,0 -0.0196,0 -0.0282,0 0,-0.0527 -0.2859,0 -0.3511,-0.0273 -0.1586,0.0019 -0.2965,-0.0434 -0.4375,-0.0508 -0.3614,0.0039 -0.7203,0.0074 -1.0781,0.0117" /><path
       inkscape:connector-curvature="0"
       id="path196"
       style="fill:#ffffff;fill-opacity:1;fill-rule:nonzero;stroke:none"
       d="m 43.093,15.3965 c -0.0996,-0.1238 -0.2035,-0.2422 -0.3055,-0.368 -0.2539,-0.2582 -0.516,-0.4961 -0.6813,-0.8066 -0.0082,0 -0.0167,0 -0.0265,0 -0.1793,0.2 -0.3606,0.3972 -0.5406,0.5965 -0.1758,0.1574 -0.5317,0.3613 -0.7379,0.4628 0,0.009 0,0.0168 0,0.0286 -0.0098,0 -0.0196,0 -0.0278,0 0,0.0078 0,0.0183 0,0.0269 0.0082,0 0.018,0 0.0278,0 0.0015,0.0512 0.0472,0.0344 0.0867,0.0403 0.107,0.0234 0.216,0.0468 0.3226,0.0664 0.3422,0.0117 0.6817,0.0234 1.0215,0.0312 0.0157,0.0586 0.0313,0.1172 0.0469,0.1758 0.0149,0.1465 0.0262,0.2922 0.0391,0.4387 -0.0137,0.1336 -0.0293,0.2703 -0.043,0.4062 0.0078,0.1375 0.0137,0.2723 0.0188,0.409 -0.0028,0.2922 -0.0383,0.6086 -0.0149,0.9055 0.0352,0.166 0.0703,0.332 0.1059,0.4961 0.0371,0.2019 0.0918,0.448 0.23,0.5976 0.1395,0.1563 0.334,0.1406 0.5129,0.2149 0.0578,-0.0274 0.1239,-0.0586 0.1461,-0.1282 0.0617,-0.1933 0.0153,-0.4511 0.0129,-0.6621 0.0082,-0.5039 0.0125,-1.0086 0.0156,-1.5156 0.0196,-0.1191 0.0977,-0.2227 0.1469,-0.3281 0.0723,-0.1641 0.1426,-0.3262 0.2145,-0.491 0.0281,0 0.0297,0.0019 0.0195,-0.0227 -0.1285,-0.241 -0.3906,-0.4062 -0.5902,-0.5742" /><path
       inkscape:connector-curvature="0"
       id="path198"
       style="fill:#ffffff;fill-opacity:1;fill-rule:nonzero;stroke:none"
       d="m 44.2398,16.1914 c -0.1375,0.1152 -0.2355,0.3789 -0.2503,0.5586 0.1453,-0.002 0.3109,-0.0137 0.439,0.0254 0.3367,-0.0012 0.6692,-0.0223 0.9899,-0.0344 0,-0.0183 0,-0.0387 0,-0.0582 -0.1086,8e-4 -0.2426,-0.0851 -0.3317,-0.1262 -0.2679,-0.1211 -0.5387,-0.241 -0.8078,-0.3621 0,-0.0363 -0.0156,-0.0226 -0.0391,-0.0031" /><path
       inkscape:connector-curvature="0"
       id="path200"
       style="fill:#ffffff;fill-opacity:1;fill-rule:nonzero;stroke:none"
       d="m 34.1465,40.1406 c 0.0051,0.2649 0.0566,0.5403 0.0586,0.8156 -0.0188,0.3028 -0.0352,0.6016 -0.0508,0.9051 -0.0066,0.5 0.0531,0.977 0.0629,1.4575 -0.016,0.2941 -0.0309,0.5855 -0.0449,0.8769 0.0074,0.2227 0.0172,0.4473 0.0242,0.6688 -0.0168,0.2246 -0.034,0.4503 -0.05,0.6726 0.0019,0.3645 0.1074,0.6813 0.1164,1.0488 -0.0145,0.2043 -0.0301,0.4094 -0.0481,0.6153 0.0082,0.1152 0.0137,0.232 0.0219,0.3492 0.0156,0.4336 0.068,0.8437 0.0703,1.2824 0.0016,0.2977 -0.0472,0.7527 0.0313,1.0133 0.0773,0.2723 0.8758,1.1777 1.1504,1.284 0,0.009 0,0.0191 0,0.0285 0.0593,-0.2246 0.0254,-0.5254 0.0015,-0.757 -0.0285,-0.2809 -0.0472,-0.575 -0.0375,-0.8746 0.0161,-0.1934 0.0321,-0.3883 0.05,-0.5844 0.0016,-0.3688 0.0039,-0.7399 0.0055,-1.1074 -0.0125,-0.1672 -0.027,-0.3317 -0.0391,-0.4969 0.0082,-0.1957 0.0153,-0.3895 0.0219,-0.5828 -0.0105,-0.5176 -0.039,-1.1067 -0.0246,-1.6352 0.0148,-0.5754 -0.0637,-1.1836 -0.048,-1.748 0.0175,-0.2137 0.0343,-0.4289 0.0504,-0.6434 0.0031,-0.4379 0.0062,-0.8754 0.0085,-1.3129 -0.014,-0.2051 -0.0316,-0.407 -0.0472,-0.6133 -4e-4,-0.3398 -0.0039,-0.6797 -0.0047,-1.0183 -0.0024,-0.4102 0.0535,-1.136 -0.0641,-1.4785 -0.0375,-0.1094 -0.1718,-0.1797 -0.2343,-0.2747 -0.0938,-0.1289 -0.1899,-0.2597 -0.284,-0.3914 -0.0942,-0.0898 -0.1899,-0.1796 -0.2825,-0.2695 -0.0964,-0.1836 -0.1949,-0.3711 -0.2894,-0.5558 -0.0113,0 -0.0188,0 -0.0285,0 0,-0.0086 0,-0.0196 0,-0.0282 -0.0098,0 -0.0219,0 -0.0309,0 0.0031,0.5496 -0.0808,1.1414 -0.0879,1.6914 -0.0047,0.325 0.0516,0.6778 0.0688,0.9903 0.0125,0.2398 -0.0496,0.4453 -0.0461,0.6726" /><path
       inkscape:connector-curvature="0"
       id="path202"
       style="fill:#ffffff;fill-opacity:1;fill-rule:nonzero;stroke:none"
       d="m 34.6969,36.5234 c 0.1426,0.3469 0.2597,0.4512 0.5414,0.6914 0.1527,0.136 0.2844,0.304 0.4543,0.4122 0.7465,0.4855 1.9183,0.4804 2.841,0.289 0.1777,-0.0508 0.3543,-0.0996 0.5309,-0.1504 0.5875,-0.1121 1.1187,-0.1797 1.6175,-0.4734 0.327,-0.1914 0.595,-0.4594 0.8957,-0.7043 0.077,-0.0508 0.1571,-0.1016 0.2344,-0.1484 0.1383,-0.1055 0.2832,-0.329 0.475,-0.325 0.2734,0.0015 0.4457,0.3543 0.6492,0.4988 0.2258,0.1652 0.45,0.3418 0.7024,0.464 0.6871,0.3321 1.373,0.6766 2.1316,0.8641 0.2746,0.0625 0.5465,0.127 0.8199,0.1914 0.1571,0.0285 0.3262,0.011 0.4668,0.0676 0.2321,-0.0039 0.4629,-0.009 0.6969,-0.0137 0.3867,-0.0605 0.7906,-0.2512 1.0918,-0.4797 0.1344,-0.1492 0.266,-0.2949 0.4004,-0.4461 0.2141,-0.2304 0.4465,-0.4746 0.4844,-0.7941 -0.0098,0 -0.0196,0 -0.0313,0 -0.0012,-0.0555 -0.2308,-0.0301 -0.291,-0.0301 -0.6117,0.0047 -1.2234,0.0067 -1.8375,0.0106 -0.223,0.0019 -0.5242,0.0429 -0.7,-0.0528 -0.2035,0.002 -0.4863,0.125 -0.6715,0.0332 -0.0652,-0.0097 -0.1347,-0.0195 -0.2031,-0.0285 -0.2301,0 -0.5117,0.0363 -0.7023,-0.0535 -0.0997,0 -0.2118,-0.0195 -0.2899,-0.0586 -0.1977,0.0012 -0.6113,0.0508 -0.7601,-0.0242 -0.0872,-0.009 -0.1747,-0.0176 -0.2626,-0.0266 -0.0863,-0.0125 -0.1742,-0.0195 -0.2621,-0.0273 -0.139,0 -0.323,-0.0195 -0.4078,-0.1152 -0.05,0 -0.0109,-0.1551 -0.009,-0.2071 0.0122,-0.5156 -0.3703,-0.9851 -0.9043,-0.9812 -0.4316,0.0027 -0.7687,0.3133 -0.8527,0.7058 -0.0277,0.1348 0.0074,0.3254 -0.0785,0.4328 -0.0371,0.045 -0.1074,0.075 -0.1703,0.0606 -0.2047,0.0098 -0.407,0.0223 -0.6125,0.034 -0.0469,-0.0117 -0.0973,-0.0196 -0.1465,-0.0301 -0.4773,0.0019 -0.9031,0.0633 -1.3988,0.0644 -0.1258,0.002 -0.3075,0.0254 -0.4082,-0.0253 -0.3516,0.0015 -0.686,0.0332 -1.0496,0.0332 -0.1727,0.0027 -0.3911,0.0195 -0.525,-0.0539 -0.5121,0.0031 -1.0368,0.0449 -1.5481,0.0382 -0.1805,0 -0.432,0.0438 -0.5828,-0.0265 -0.1566,0.0011 -0.3109,0.0031 -0.4359,0.0617 0,0.1211 0.0664,0.2234 0.1078,0.323" /><path
       inkscape:connector-curvature="0"
       id="path204"
       style="fill:#ffffff;fill-opacity:1;fill-rule:nonzero;stroke:none"
       d="m 50.0641,44.2812 c -0.0196,0 -0.0371,0 -0.0563,0 -0.0937,0.2317 -0.059,0.4543 -0.0574,0.7297 0.0027,0.3489 -0.0742,0.7004 0.0941,0.993 0.0922,-0.0195 0.1633,-0.0461 0.2032,-0.1324 0.0863,-0.1981 0.0738,-1.5926 -0.1836,-1.5903 z m -0.4453,3.5899 c 0,-0.0094 0,-0.0199 -4e-4,-0.0277 -0.2274,0.0449 -0.2668,0.2222 -0.1422,0.4078 0.1199,-0.0578 0.2558,-0.3801 0.1426,-0.3801 z m -0.0754,-4.2617 c -0.0122,-0.0289 -0.1836,-0.2719 -0.1829,-0.111 -0.0398,0.0868 -0.0293,0.2196 -0.03,0.3219 -0.0082,0.266 -0.0035,0.568 -0.0098,0.8449 -0.0016,0.3676 -0.0043,0.7395 -0.0062,1.1075 0.0019,0.298 -0.0258,0.6105 0.0917,0.8464 0.0883,-0.0433 0.1559,-0.1171 0.1821,-0.2105 0.0859,-0.3227 0.0176,-0.6902 0.0156,-1.0461 -0.0016,-0.482 0.1223,-1.3301 -0.0605,-1.7531 z m 1.0363,4.4922 c -0.0031,0.2738 -0.0543,0.5527 -0.0758,0.8168 -0.0074,0.1453 -0.0152,0.2918 -0.0234,0.439 -0.0059,0.0551 0.016,0.3184 -0.034,0.3203 0,0.0082 0,0.0176 0,0.0278 -0.0305,0 -0.0598,0 -0.0891,0 -0.0594,-0.5727 -0.0281,-1.202 -0.0426,-1.8078 -0.0043,-0.2356 -0.1078,-0.4094 -0.1261,-0.6133 0.0011,-0.1164 0.0027,-0.234 0.007,-0.3492 -0.0109,-0.1059 -0.0199,-0.2145 -0.0297,-0.3215 -0.141,-0.0196 -0.2414,0.0172 -0.2719,0.1543 -0.0457,0.1961 0.0516,0.3609 0.0461,0.5465 -0.0156,0.1281 -0.0261,0.2543 -0.0418,0.3824 -0.0066,0.6902 0.0563,1.4222 0.0504,2.0984 -0.0136,0.118 -0.0242,0.234 -0.0363,0.3485 -0.0172,0.0593 -0.0324,0.1171 -0.0453,0.1769 -0.0313,0 -0.0598,0 -0.0906,0.0016 0,-0.0106 0,-0.0211 0,-0.0301 -0.0098,0 -0.0188,0 -0.0293,0 -0.0168,-0.4942 -0.0731,-0.9391 -0.0985,-1.4277 -0.0195,-0.0875 -0.0367,-0.1754 -0.0554,-0.2629 -0.0293,0 -0.0579,0 -0.0879,0 -0.1539,0.3839 -0.1063,0.8886 -0.1106,1.3422 -0.0027,0.2449 0.0231,0.4957 -0.0515,0.7007 -0.0895,-0.1578 -0.0836,-0.3211 -0.0993,-0.523 -0.0183,-0.2328 -0.0339,-0.5125 -0.0214,-0.759 0.0136,-0.2594 0.0621,-0.5477 0.0418,-0.8184 -0.1454,-1.6726 -0.068,-3.3121 -0.0782,-5.0152 -0.0093,-0.3402 -0.0179,-0.6801 -0.0238,-1.0199 -0.0234,-0.2891 -0.0703,-0.6028 -0.073,-0.9074 -0.002,-0.4188 0.0273,-0.8672 0.0183,-1.3125 -0.007,-0.4149 -0.0547,-0.8797 -0.0293,-1.3106 0.0039,-0.0586 0.0137,-0.207 0.0813,-0.207 0,-0.0078 0,-0.0176 0,-0.0274 0.0086,0 0.0183,0 0.0281,0 0,0.0098 0,0.0196 0,0.0274 0.0094,0 0.0223,0 0.0293,0 0.0789,0.2473 0.0531,0.5363 0.064,0.8183 0.0172,0.459 0.0747,0.9231 0.0622,1.4004 -0.0075,0.2969 -0.07,0.67 0.032,0.9543 0.0172,0.0477 0.0531,0.0633 0.1086,0.0477 0.1133,-0.0313 0.1387,-0.202 0.1539,-0.3047 0.0574,-0.3555 -0.0086,-0.7059 -0.0281,-1.0801 -0.0028,-0.2918 -0.0043,-0.5832 -0.0075,-0.875 -0.0011,-0.3191 -0.0218,-0.6601 0.0129,-0.9629 0.0172,-0.1687 -0.0191,-0.3308 0.0293,-0.4883 0.0285,-0.0906 0.0481,-0.3007 0.1809,-0.3007 0.0308,0.4824 0.0496,1.0265 0.0519,1.5187 -0.0101,0.2324 -0.0238,0.4668 -0.0351,0.7 0.0226,0.2317 0.0433,0.466 0.066,0.6985 0.0238,0.1558 0.0473,0.3125 0.0719,0.4675 8e-4,0.2168 -0.066,0.4258 -0.0922,0.6145 -0.0441,0.3133 -0.0359,0.6504 -0.0344,0.991 0.0016,0.1785 0.002,0.3609 0.0504,0.5199 0.0156,0.0528 0.0996,0.1004 0.0996,0.1485 0.0098,0 0.0199,0 0.0281,0 0.1036,-0.0899 0.1672,-0.1821 0.1891,-0.3235 0.0508,-0.3562 0.0254,-0.8 0.0016,-1.1633 -0.0098,-0.1289 -0.052,-0.2371 -0.0493,-0.3796 0.0028,-0.3215 0.086,-0.6602 0.0942,-0.9922 -0.0074,-0.1352 -0.0137,-0.2707 -0.0199,-0.4082 -0.0035,-0.5911 -0.0071,-1.1211 -0.0094,-1.7219 -0.0031,-0.4277 0.0363,-0.8848 0.0797,-1.2879 -0.009,-0.0762 -0.0196,-0.1523 -0.0305,-0.2305 0.0391,0 0.0781,0 0.1172,0 0.1168,0.252 0.0824,0.5653 0.0941,0.877 0.0114,0.3277 0.0606,0.707 0.0211,1.0457 -0.0297,0.2246 -0.0621,0.4484 -0.0957,0.6758 0.0047,0.2355 0.0785,0.4492 0.086,0.698 0.0082,0.3664 -0.0547,0.6938 -0.0524,1.0512 0.0215,0.3769 0.0442,0.7566 0.0645,1.1375 0,0.2906 0.0031,0.582 8e-4,0.8734 -0.0133,0.1172 -0.0293,0.2332 -0.0454,0.3504 -0.0027,0.1856 0.0493,0.3352 0.0547,0.5242 -0.007,0.3032 -0.0152,0.6028 -0.0226,0.9059 4e-4,0.4625 0.032,0.9207 0.0351,1.4004 0.0039,0.493 0.0395,0.9566 0.0352,1.4301" /><path
       inkscape:connector-curvature="0"
       id="path206"
       style="fill:#ffffff;fill-opacity:1;fill-rule:nonzero;stroke:none"
       d="M 47.4594,48.6488 C 47.3484,48.5719 47.182,48.5391 47.0543,48.5016 46.7234,48.4023 46.3949,48.3008 46.0645,48.1992 45.6121,48.0586 45.148,47.8883 44.7246,47.6797 44.4277,47.507 44.1305,47.334 43.8297,47.1598 c -0.0488,-0.0239 -0.459,-0.2399 -0.4574,-0.1266 -0.0125,0 -0.02,0 -0.0309,0 0.0391,0.3066 0.3934,0.516 0.6336,0.6566 0.1156,0.0821 0.2336,0.1653 0.3488,0.25 0.2961,0.1891 0.6153,0.3727 0.9297,0.5188 0.332,0.1559 0.6852,0.2398 1.0348,0.3574 0.1203,0.0551 0.239,0.107 0.3562,0.159 0.1578,0.0555 0.3149,0.1117 0.4727,0.1648 0.1211,0 0.2621,0.0102 0.3707,-0.0253 0.2269,-0.0809 0.1156,-0.3594 -0.0285,-0.4657 z m -0.0473,-7.134 c -0.2375,-0.1425 -0.5535,-0.1406 -0.8324,-0.2023 -0.2531,-0.0516 -0.5035,-0.1297 -0.7617,-0.1883 -0.8676,-0.2004 -1.5879,-0.5488 -2.3297,-0.9933 -0.0922,-0.0528 -0.336,-0.286 -0.4278,-0.1153 -0.0671,0.1184 0.1129,0.2414 0.1852,0.3059 0.2902,0.2527 0.5871,0.4219 0.9012,0.618 0.348,0.2179 0.6953,0.4113 1.0789,0.5597 0.1222,0.0672 0.2445,0.1317 0.368,0.1992 0.4769,0.1883 0.9703,0.3055 1.4554,0.4707 0.136,0 0.2789,-0.0031 0.3918,-0.0586 0.2348,-0.1242 0.1727,-0.4738 -0.0289,-0.5957 z m -4.0723,2.3801 c 0.7012,0.6524 1.6118,0.9739 2.4684,1.3219 0.2719,0.1117 0.5887,0.309 0.9098,0.3074 0.1078,0.0848 0.3519,0.2035 0.4961,0.202 0,0.0117 0,0.0183 0,0.03 0.1687,-0.0285 0.2972,-0.1003 0.3019,-0.2929 0.0051,-0.166 -0.0781,-0.3008 -0.2051,-0.3856 -0.255,-0.1695 -0.5621,-0.1984 -0.8554,-0.2988 -0.3293,-0.1105 -0.6727,-0.2348 -1.0059,-0.3363 -0.2273,-0.0692 -0.4555,-0.118 -0.6719,-0.2051 -0.3933,-0.1594 -0.7859,-0.3629 -1.1492,-0.582 -0.1297,-0.0782 -0.2637,-0.2004 -0.4273,-0.2063 -0.0395,-0.0015 -0.0828,0.002 -0.1094,0.0297 -0.1402,0.1406 0.1656,0.3434 0.248,0.416 z m 5.4114,1.0949 c -0.0157,0.1727 -0.0317,0.3481 -0.0496,0.5243 -0.0075,0.732 0.0347,1.4836 0.0386,2.1863 -0.0066,0.225 -0.0144,0.448 -0.0222,0.6742 -0.0071,0.5566 0.0031,1.0973 -0.0278,1.6328 -0.0308,0.1668 -0.0593,0.3321 -0.091,0.5004 -0.0301,0.191 0.0086,0.4086 0.0207,0.607 0.0012,0.0668 0.0196,0.2625 -0.0629,0.2641 -0.1406,0.0668 -0.3019,0.0356 -0.4648,0.0434 -0.1899,0.0117 -0.3766,0.0488 -0.584,0.05 -0.2191,-0.0774 -0.4902,-0.052 -0.7246,-0.0969 -1.0805,-0.2016 -2.0898,-0.3582 -3.0242,-0.8551 -0.2289,-0.1223 -0.4758,-0.2535 -0.6508,-0.4633 -0.1328,-0.1601 -0.1367,-0.3597 -0.1684,-0.5707 -0.0757,-0.4965 -0.0742,-1.0277 -0.0922,-1.5761 -0.0195,-0.2735 -0.0382,-0.5454 -0.0582,-0.8184 -0.005,-0.3949 -0.0062,-0.7949 -0.0109,-1.1938 -0.0184,-0.1558 -0.0344,-0.3113 -0.0527,-0.4652 -0.0367,-0.3703 -0.027,-0.7793 -0.0403,-1.1402 -0.0195,-0.5578 0.0129,-1.127 0.0246,-1.6625 0.0125,-0.5129 -0.021,-1.0676 -0.0148,-1.6035 0.0129,-0.1457 0.0254,-0.2903 0.0371,-0.4387 -0.0117,-0.0867 -0.0215,-0.1758 -0.0336,-0.2617 -0.0015,-0.2469 0.0473,-0.4903 0.0453,-0.7586 -0.0039,-0.718 -0.0222,-1.6418 0.2633,-2.2121 0.0152,-0.0282 0.1051,-0.1571 0.1051,-0.0946 0.3223,0.1258 0.6094,0.3758 0.9109,0.5399 0.2688,0.1465 0.5602,0.2344 0.8297,0.3769 0.325,0.1739 0.4945,0.2969 0.9199,0.2922 0.1207,0.0781 0.4793,0.1453 0.643,0.1426 0.0695,0.0105 0.1363,0.0184 0.2024,0.0273 0.0597,0.0106 0.1183,0.0176 0.175,0.0301 0.3109,0.1524 1.0316,0.0117 1.3441,-0.0664 0.1531,-0.039 0.3098,-0.0793 0.4668,-0.118 0.0738,0.45 4e-4,0.9618 -0.0102,1.4004 0.016,0.2508 0.0325,0.5039 0.0493,0.7559 0.0027,0.3184 -0.0208,0.6387 -0.0153,0.9355 0.0156,0.1571 0.0336,0.3125 0.0492,0.4668 0.018,0.368 -0.0031,0.7207 0.0164,1.0789 0.011,0.2086 0.0442,0.4313 0.0493,0.6418 0.0078,0.4032 0.0199,0.809 0.0078,1.225" /><path
       inkscape:connector-curvature="0"
       id="path208"
       style="fill:#ffffff;fill-opacity:1;fill-rule:nonzero;stroke:none"
       d="m 41.7992,46.8648 c -0.0332,-0.0636 -0.1387,-0.0668 -0.2019,-0.055 -0.1735,0.0363 -0.3039,0.1957 -0.4508,0.282 -0.1692,0.0969 -0.3395,0.1914 -0.5094,0.2871 -0.9059,0.4586 -1.9285,0.7246 -2.9176,0.9992 -0.2847,0.0793 -0.655,0.061 -0.9004,0.2141 -0.2007,0.1269 -0.2046,0.3976 -0.0296,0.5476 0.4253,-0.0027 0.7679,-0.1382 1.1414,-0.25 0.1136,-0.0222 0.2269,-0.0449 0.3379,-0.0679 0.2453,-0.0668 0.4808,-0.1684 0.7132,-0.2617 0.2075,-0.0715 0.4125,-0.145 0.6219,-0.2168 0.0981,-0.0543 0.1984,-0.1094 0.2961,-0.1614 0.2852,-0.1328 0.5688,-0.2675 0.8523,-0.4008 0.1762,-0.0828 1.1547,-0.6917 1.0469,-0.9164 z m -0.1133,-3.6441 c -0.0211,-0.0078 -0.0406,-0.016 -0.0605,-0.0215 -0.0121,-0.0015 -0.0207,-0.0058 -0.0316,-0.0074 -0.2036,-0.0297 -1.0262,0.6445 -1.2758,0.7609 -0.2922,0.1395 -0.5946,0.25 -0.8977,0.3676 -0.4062,0.1567 -0.8015,0.3363 -1.2582,0.3977 -0.1742,0.0218 -0.3469,0.0437 -0.5234,0.0683 -0.2379,0.0125 -0.6094,-0.0418 -0.7864,0.0985 -0.2168,0.1754 -0.0753,0.6386 0.2102,0.6379 0,0.0078 0,0.0168 0,0.0273 1.2887,-0.091 2.4027,-0.6797 3.4492,-1.2688 0.2821,-0.1589 1.0117,-0.5992 1.1602,-0.8945 0.0172,-0.0332 0.0715,-0.1668 0.014,-0.166 z m -0.6976,-3.1941 c -0.4988,0.2351 -1.0321,0.4238 -1.568,0.5925 -0.1859,0.0579 -0.3797,0.0813 -0.5758,0.1211 -0.2836,0.0586 -0.58,0.1407 -0.8789,0.1868 -0.3304,0.0515 -0.6687,0.0652 -0.9883,0.1347 -0.0355,0.0145 -0.0714,0.0293 -0.1078,0.0418 -0.2636,0.1457 -0.2675,0.6574 0.1125,0.6543 0,0.009 0,0.0195 0,0.0305 0.2375,-0.0012 0.4118,-0.0617 0.6153,-0.1055 0.2113,-0.0461 0.4277,-0.0656 0.6347,-0.1164 0.1766,-0.0664 0.3532,-0.1309 0.5274,-0.1922 0.5211,-0.168 0.9949,-0.341 1.4828,-0.5715 0.1152,-0.0418 0.2297,-0.0859 0.3461,-0.125 0.2777,-0.123 0.6797,-0.4199 0.8805,-0.6589 0.0765,-0.0852 0.1988,-0.1387 0.1988,-0.2688 -0.2438,-0.0312 -0.4821,0.1836 -0.6793,0.2766 z m 1.059,8.8527 c -0.0407,0.4297 0.0168,0.884 -0.2266,1.2102 -0.4559,0.616 -1.0785,0.8398 -1.7453,1.0914 -0.1789,0.0597 -0.3535,0.1226 -0.5328,0.1839 -0.202,0.0379 -0.4024,0.075 -0.6055,0.1133 -0.3098,0.0781 -0.6656,0.1426 -0.9969,0.1586 -0.4672,0.0051 -0.932,0.0082 -1.3988,0.0125 C 36.4027,51.5875 36.1742,51.6078 36.084,51.4723 35.9938,51.3352 36.041,50.8047 36.041,50.602 36.0367,49.8125 36.0016,49.0242 35.9965,48.2109 35.9938,47.734 35.9902,47.257 35.9863,46.7816 35.9586,46.3832 35.932,45.9844 35.9055,45.5844 35.8941,45.3 36.0094,45.0406 36.0016,44.7398 35.9895,44.1543 35.977,43.5102 35.9652,42.902 c -0.0214,-0.2536 -0.039,-0.5075 -0.0605,-0.7575 -0.0082,-0.5195 0.0293,-1.0047 0.0187,-1.5175 -0.0187,-0.254 -0.039,-0.5059 -0.0586,-0.7567 -0.0019,-0.2461 0.0739,-0.4484 0.0711,-0.6719 -7e-4,-0.2629 -0.0496,-0.5129 -0.0515,-0.7871 0.1058,-0.0019 0.2129,-0.0039 0.3207,-0.0039 0.0801,0.0391 0.1918,0.0586 0.2906,0.0586 0.0824,0.0391 0.1945,0.0543 0.2926,0.0543 0.0695,0.0129 0.1371,0.0199 0.2035,0.0277 0.2777,0.1231 1.0332,-0.0332 1.3156,-0.0781 0.359,-0.0625 0.6942,-0.0488 1.0442,-0.123 0.4121,-0.086 1.0363,-0.3242 1.3922,-0.5344 0.1261,-0.0742 0.8441,-0.6297 0.9085,-0.6297 0,0.0078 0,0.0184 0,0.0274 0.1868,0.3086 0.168,0.6082 0.2211,0.9902 0.059,0.4305 0.068,0.868 0.0868,1.3418 0.0222,0.6695 0.0625,1.3594 0.0664,2.043 -0.0063,0.291 -0.0114,0.5839 -0.02,0.8738 0.0317,0.8402 0.0239,1.6562 0.0414,2.4801 0.0262,1.2875 0.1125,2.6578 -7e-4,3.9402" /><path
       inkscape:connector-curvature="0"
       id="path210"
       style="fill:#ed114c;fill-opacity:1;fill-rule:nonzero;stroke:none"
       d="m 40.227,74.5344 c -0.4434,-0.0535 -0.8868,-0.1074 -1.3301,-0.1602 -0.3824,-0.0601 -0.759,-0.1281 -1.175,-0.1422 -0.9059,-0.175 -1.8117,-0.3476 -2.718,-0.5218 -1.2742,-0.2594 -2.4812,-0.7965 -3.6492,-1.279 -2.1887,-0.9023 -4.2512,-1.9511 -6.2379,-3.2617 -0.4707,-0.3086 -3.7539,-2.6097 -3.7535,-2.9683 0.5344,-0.0414 1.0719,-0.0856 1.607,-0.127 1.2887,-0.0762 2.6344,-0.0262 3.9149,-0.0262 0.7918,-0.039 1.5851,-0.0808 2.3761,-0.1187 0.3117,0.1449 0.8094,0.0687 1.1891,0.0703 1.0816,8e-4 2.1109,-0.0684 3.1441,-0.0668 0.5325,0.2234 1.3914,0.0274 1.9575,0.0067 1.7468,0 3.4941,-8e-4 5.2414,-8e-4 1.9578,-0.0442 3.914,-0.0891 5.8703,-0.1317 3.6121,0.0469 7.2246,0.0977 10.8343,0.1461 0.2688,0.0973 0.6696,0.0024 0.9801,0.0024 0.627,-0.0168 1.2578,-0.0356 1.8836,-0.0532 0.3258,0.0168 0.6524,0.0329 0.9789,0.05 0.6156,-0.0171 1.2957,-0.0796 1.9563,-0.0601 0.1429,0.0066 0.5551,-0.0219 0.7027,-0.0219 0.443,0 -0.3547,0.6328 -0.493,0.7871 -0.4554,0.5141 -0.9613,0.868 -1.5004,1.2266 -0.3226,0.2543 -0.6433,0.5101 -0.9671,0.7648 -0.6586,0.4414 -1.32,0.8789 -1.9793,1.3203 -4.1286,2.4942 -8.1133,3.9661 -13.245,4.4727 -0.7449,0.0137 -1.4882,0.0289 -2.2328,0.0449 -1.0836,0.0172 -2.2539,0.0485 -3.355,0.0477" /><path
       inkscape:connector-curvature="0"
       id="path212"
       style="fill:#ed114c;fill-opacity:1;fill-rule:nonzero;stroke:none"
       d="M 19.6246,64.5891 C 19.1754,64.1312 18.5105,63.4664 18.0609,63.009 17.1293,61.7551 16.1992,60.5016 15.268,59.2461 13.3098,55.9449 12.1145,52.5094 11.2703,48.6582 c -0.1375,-0.6141 -0.1348,-1.225 -0.1949,-1.8773 -0.3012,-3.1739 -0.3883,-6.7418 0.1187,-9.8707 0.1383,-0.5184 0.277,-1.036 0.4149,-1.5489 0.1551,-0.8543 0.2824,-1.6433 0.5508,-2.4375 0.2683,-0.659 0.5375,-1.3144 0.8054,-1.9715 0.3215,-0.966 0.8114,-1.8339 1.2711,-2.7265 1.0883,-2.1211 2.3516,-4.1367 3.8864,-6.0547 0.2242,-0.2766 0.7851,-1.0551 1.1824,-1.0551 8e-4,0.0246 8e-4,0.0453 8e-4,0.0707 0.3078,0.586 0.0933,2.3594 0.0711,3.077 -0.0043,1.2101 -0.0075,2.4199 -0.0098,3.634 -0.0016,1.0808 -0.0434,2.2234 0.0098,3.3535 0.1101,2.4082 0.0156,4.9031 0.0515,7.3406 0.0301,2.0605 0.136,4.182 0.134,6.2894 -0.0016,1.9801 -0.1184,4.1536 0.0512,6.0723 -0.016,0.2137 -0.0317,0.4266 -0.0489,0.6422 -0.0027,0.6027 -0.0035,1.2086 -0.0058,1.8137 0.034,0.8351 0.068,1.6711 0.1019,2.5086 -0.0554,1.8004 -0.0441,3.6304 -0.1023,5.4605 -0.0441,1.2848 0.1152,2.5215 0.066,3.2106" /><path
       inkscape:connector-curvature="0"
       id="path214"
       style="fill:#ed114c;fill-opacity:1;fill-rule:nonzero;stroke:none"
       d="m 65.7227,64.393 c -0.0989,-1.2317 0.1058,-3.1438 0.0882,-4.4403 -0.0437,-2.7933 -0.0543,-5.5695 -0.0527,-8.4609 0.0051,-4.7191 0.0059,-9.0023 0.0098,-13.5609 0.0023,-2.55 -0.127,-5.0918 -8e-4,-7.6848 -0.0094,-1.0496 -0.0156,-2.0996 -0.0266,-3.1473 0.0028,-1.9277 0.2219,-3.9426 -0.182,-5.7968 -0.0274,-0.1094 -0.2758,-0.9387 -0.0785,-0.9387 0.6601,0 3.691,4.375 4.1152,5.0742 0.3055,0.5586 0.6109,1.1145 0.9164,1.6719 0.1668,0.3789 0.336,0.7566 0.5035,1.1398 0.5883,1.043 1.2629,2.3125 1.6578,3.461 0.8254,2.4265 1.325,4.9199 1.6731,7.5933 0.1144,0.8762 0.0801,1.725 0.0953,2.6508 0.0211,0.4902 0.0426,0.9785 0.0641,1.4672 -0.0442,2.6172 -0.3508,5.3863 -1.0246,7.7129 -0.6684,2.3004 -1.7106,4.5371 -2.8559,6.6094 -0.4004,0.7246 -0.8977,1.3871 -1.3441,2.0925 -0.5977,0.9407 -3.1633,4.8516 -3.5582,4.5567" /><path
       inkscape:connector-curvature="0"
       id="path216"
       style="fill:#ed114c;fill-opacity:1;fill-rule:nonzero;stroke:none"
       d="M 61.5191,17.0324 C 59.727,15.6855 56.0035,15.5441 53.6332,15.2539 53.0266,15.1758 52.4188,15.0988 51.809,15.0234 48.8535,14.882 44.9602,14.6066 43.8969,11.5703 c -0.1098,-0.3281 -0.0985,-0.3965 -0.2098,-0.7234 -0.0484,-0.2891 1.3184,-0.0157 1.9473,-0.0141 0.1804,0.091 0.475,0.0676 0.6996,0.0688 0.139,0.0254 0.2793,0.0476 0.4187,0.0703 0.3493,0.1941 0.8895,0.2109 1.3278,0.2129 0.2922,0.1472 0.689,0.1394 1.0496,0.1394 0.3836,0.2102 1.3215,0.3516 1.8148,0.3516 0.8356,0.2859 1.6719,0.5742 2.5059,0.8633 2.368,0.9609 4.8844,1.9269 6.9086,3.5488 0.2992,0.2394 0.6765,0.3164 1.1597,0.9445" /><path
       inkscape:connector-curvature="0"
       id="path218"
       style="fill:#ed114c;fill-opacity:1;fill-rule:nonzero;stroke:none"
       d="m 24.6914,16.4375 c 0.525,-0.6316 1.2711,-0.7773 1.9242,-1.2227 0.3731,-0.2734 0.9188,-0.5593 1.2883,-0.832 1.4316,-0.6855 2.5137,-1.248 3.9762,-1.7324 1.6086,-0.5344 3.1828,-1.043 4.9137,-1.3582 0.5851,-0.1074 4.5734,-0.832 4.7222,-0.4594 0.2399,0.6047 -1.0605,2.0863 -1.5125,2.468 -0.4215,0.3574 -0.9332,0.5851 -1.3961,0.839 -0.4469,0.245 -0.9719,0.3868 -1.4644,0.5215 -0.6504,0.1797 -1.2801,0.3867 -1.9735,0.5028 -0.6633,0.1125 -1.3187,0.1171 -2.0191,0.1836 -0.609,0.0968 -1.2149,0.1964 -1.825,0.2949 -0.7883,0.1074 -1.5777,0.0976 -2.3652,0.1965 -1.4465,0.1785 -2.7965,0.5105 -4.2688,0.5984" /></g></svg>